<svg xmlns="http://www.w3.org/2000/svg" xml:space="preserve" width="34" height="20" viewBox="0 0 512 512"><path d="M336.495 418.043h-160.99V309.422c0-44.487 35.954-80.55 80.441-80.55s80.55 36.063 80.55 80.55v108.621h-.001z" style="fill:currentColor"/><circle cx="255.949" cy="143.727" r="49.773" style="fill:currentColor"/><path d="M175.505 418.043H49.112V332.75c0-34.932 28.318-63.25 63.25-63.25s63.142 28.318 63.142 63.25v85.293z" style="fill:currentColor"/><circle cx="112.365" cy="194.081" r="39.083" style="fill:currentColor"/><path d="M462.924 418.043H336.423V332.75c0-34.932 28.318-63.25 63.25-63.25s63.25 28.318 63.25 63.25v85.293h.001z" style="fill:currentColor"/><circle cx="399.676" cy="194.081" r="39.083" style="fill:currentColor"/><path d="M255.946 203.703c33.068 0 59.971-26.903 59.971-59.972 0-33.068-26.903-59.971-59.971-59.971-33.069 0-59.972 26.903-59.972 59.971s26.903 59.972 59.972 59.972zm0-99.546c21.821 0 39.573 17.753 39.573 39.573 0 21.821-17.752 39.574-39.573 39.574s-39.574-17.753-39.574-39.574c0-21.821 17.753-39.573 39.574-39.573zM112.363 243.361c27.175 0 49.283-22.108 49.283-49.283s-22.108-49.283-49.283-49.283-49.283 22.109-49.283 49.284c0 27.174 22.108 49.282 49.283 49.282zm0-78.167c15.927 0 28.884 12.958 28.884 28.884s-12.957 28.884-28.884 28.884-28.884-12.957-28.884-28.884 12.957-28.884 28.884-28.884zM399.674 243.361c27.175 0 49.282-22.108 49.282-49.283s-22.108-49.283-49.282-49.283-49.283 22.108-49.283 49.283 22.109 49.283 49.283 49.283zm0-78.167c15.926 0 28.883 12.958 28.883 28.884s-12.957 28.884-28.883 28.884c-15.927 0-28.884-12.957-28.884-28.884s12.957-28.884 28.884-28.884zM501.801 428.241c5.632 0 10.199-4.566 10.199-10.199s-4.567-10.199-10.199-10.199h-28.677V332.75c0-40.5-32.95-73.45-73.451-73.45-22.522 0-42.698 10.198-56.181 26.209-10.52-38.473-45.781-66.836-87.546-66.836-41.729 0-76.956 28.381-87.451 66.874-13.464-16.033-33.626-26.247-56.132-26.247-40.5 0-73.451 32.95-73.451 73.45v75.093H10.199C4.566 407.843 0 412.409 0 418.042s4.566 10.199 10.199 10.199h491.602zM59.31 332.75c0-29.252 23.799-53.051 53.052-53.051 29.193 0 52.943 23.799 52.943 53.051v75.093H59.31V332.75zm266.915 75.093H185.704v-98.421c0-38.792 31.51-70.351 70.242-70.351 38.792 0 70.351 31.559 70.351 70.351l-.072 98.421zm20.47 0v-77.866c1.447-27.969 24.657-50.279 52.979-50.279 29.252 0 53.051 23.799 53.051 53.051v75.093h-106.03v.001z" style="fill:currentColor"/><path d="M207.08 329.54c-5.633 0-10.199 4.566-10.199 10.199v48.939c0 5.633 4.566 10.199 10.199 10.199s10.199-4.566 10.199-10.199V339.74c0-5.632-4.566-10.2-10.199-10.2zM207.08 296.915c-5.633 0-10.199 4.566-10.199 10.199v2.176c0 5.633 4.566 10.199 10.199 10.199s10.199-4.566 10.199-10.199v-2.176c0-5.633-4.566-10.199-10.199-10.199z" style="fill:currentColor"/></svg>