<svg xmlns="http://www.w3.org/2000/svg" width="782" height="494" fill="none" viewBox="0 0 782 494"><path fill="#1D225F" stroke="#F0EFFC" stroke-linejoin="round" stroke-width="3.18187" d="m207.149 428.951-2.639.145-3.714 2.217-.557 1.632 2.496 1.831 3.406.91 2.609-4.932-1.603-1.803h.002Zm-14.339 8.074 2.025-2.054-2.611.317.586 1.737Zm40.281 4.043-2.103-1.956-1.89 2.15-1.987.864 2.439 4.682 1.824-1.843 3.149 2.553 2.054-1.526-.481-2.168-2.102-.181-.904-2.571.001-.004Zm11.301 7.048-.719 2.427 3.888-.116 3.571.824 2.554-1.372.182-.682-4.646-.881-.211.509-4.618-.709h-.001Zm11.665 3.555-1.526.787 1.038 3.379 2.4.191.779 2.888 2.496 1.121 3.052-.864 2.538-1.843-5.33-4.255-5.443-1.398-.004-.006Zm-5.633 5.615 1.814-1.19-1.498-2.236-1.757-.239-1.007 1.056 1.028.479.538 2.159.884-.029h-.002Zm6.721 3.73-1.306-1.083-1.208 1.621 2.514-.538Zm31.138 18.764-3.025-2.867.038-.835-2.015-.373-.069-2.536-6.087-4.191-2.537-.642-3.688-2.224-2.37.691 1.326 3.329-3.981 5.932 1.449 2.301 1.547 4.298.896 6.774 3.388 2.215 2.092-3.426 3.675-2.803 4.521-1.287 3.839-2.536.998-1.823.003.003ZM541.323 107.171l.393-.688-.232-2.261-.721.197-.62 2.688 1.18.064Zm46.953 41.967-.985-1.473-1.248-3.145-.659-3.112-.755-1.343-1.382-5.045-1.083-1.834-1.805-1.637-1.738-.687-1.966 1.313-2.065.952-1.44 2.524-.982 2.786-.819-.163-1.309 2.295-3.149-.882-.787-.753-.199-2.851.556-1.508.524-.918 1.671-.264 1.246-1.115.455-3.998 1.966-1.313.326-1.639-.495-3.931.196-1.409-1.118-3.371-1.805-1.637.196-1.409 1.573-.624-.526-1.212-1.117-1.244.164-.819-1.706-1.277-2.361-.129-2.197-.948-1.378-.786-2.131.002-1.772-2.227-1.279-.424-2.032.362-1.608-.916-2.557-.851-2.197 1.181-1.539 2.164.002 2.13 1.345 1.375-.065 1.179-1.901.134-1.737 1.443-.687 1.737.461 2.392-.292 3.179-1.477-1.146-.292 3.179-1.05-.294.458-1.868-.394-1.442.392-.688-.394-1.441-1.867 1.672-.95 2.196-1.148-.654-.785 1.376-.59-.032-.424 3.409-1.442.394-.524.918.494 1.802.265 3.801-1.767 4.163-1.146 1.475 1.182 2.195.297 3.211-.687 1.737-.195 1.41.624 1.572 3.843 7.667 1.051 2.424.463 4.522-.128 4.489-1.176 4.195-1.31 2.295-1.144 3.605-1.309 2.295-1.736 1.443 7.966-.629 12.755-1.551 7.147-.793.066.95 6.917-.923 11.343-1.747.326-1.638 1.603-3.344.852-.427.356-4.358.164-.819.785-1.377 2.097-1.541-.199-2.851.425-1.278 1.277-1.705 1.148.654.133 1.901.852-.426.786-1.377.128-2.359-.426-.851.554-3.638.001-.007Zm-22.863-53.7844-1.639-.326.066.9503-1.638 1.8039 1.64.3261 1.902-.1332 1.015-1.2461-1.346-1.375Zm-12.729-5.4284-.753.7869-1.346-1.375-2.064.9521-3.149-.8822.194-3.5395-.427-.8509-2.131.0017-3.67 2.1661-4.262.0034-3.016 1.0186-.689-.3926-1.506 1.5738-2.687 1.5099-1.54 2.1636-1.607-.9158-1.475.984-1.345-1.375-1.311.1652-1.934.7228-1.541.0337-.625-1.5721-1.049-.2941-1.871-2.5874-.656-.9824-2.067-1.1778-3.541-.1938-1.442.3943-.559-.6218-1.768 2.033-1.311.1652.26-2.5891-1.281-2.5529-1.279-.4246-.755-1.343-2.489 2.2301-.818 1.9665-2.033.3623-1.146 1.4753-1.966 1.3126-5.146 1.0204-2.391 2.5907-4.982 2.3305.198.7204 2.099.588 1.609 3.0458 12.986 2.8389 3.936 1.636 2.459.489 1.212-.525 2.689.62 2 .227.919.523.691 2.523 2.23.358 1.476 1.146.265 3.8-.818 1.967 2.951.161-.588 2.098-.065 1.179 1.706 1.277.556-1.508 2.259-4.491.719-2.327 1.08-2.426.983-.656.359-2.229.919.524.165 1.311 1.573-.625 1.21-2.655.918.524 1.245-1.116.264 1.671-.851.426-.818 1.967 1.279.424.949-2.196 1.835-1.083 1.343-2.885 2.163-.591 5.245-.66 1.309-2.2949 2.623-.3303 4.328.9462 2.593 2.389 1.41.196-.264-1.6708.588-2.098 2.82.391 5.541.4213 1.573-.6244-2.034-1.7676.065-1.1795-3.279-.6522.754-.7869-.494-1.8022 1.541-.0337-.854-1.7019.327-1.6387-1.05-.2941-1.474.9841-1.541.0337-.655 1.1476-.003.0025Zm-42.699-13.6929-1.017-.8838-2.852.1989-1.934.7229-2.818 1.7389-1.801 2.6228-.097 1.7694 1.181.0648 1.51 2.686 1.866-3.8023 4.028-4.3947 1.542-.0337.392-.6892ZM499.45 63.2329l-1.573.6243-2.589 1.8696-3.31 2.0676-1.114.8855.985 1.4736 2.196-1.1813.164-.8189 3.047-1.6084 1.245-1.1155.949-2.1965ZM767.289 83.9086l-.066-.9504-1.608-.9158-.851.4263-.26 2.5891.558.6218 2.228-1.771h-.001Zm-3.138-27.0285.065-1.1795-2.335-7.1084-4.667-14.2169-2.953-2.2909-3.706-1.5039-1.18-.0649-.786 1.3767-1.803.4929-.917 1.6067-1.442.3943-1.376 1.3447-1.869-.4575-.558-.6218-.69-2.5225-2.131.0017-.622.5577-5.003 15.6998.66 5.2422-1.146 1.4753-.293 3.1788.657.9824-.196 1.4096.166 1.3101 1.116 1.2445-1.342 2.8848.426.8509-1.899 2.2622-.687 1.7373-.097 1.7694-.818 1.9664.395 1.4416-.786 1.3767-.984-1.4736-1.475.9841 3.879 11.3346 4.372 13.1364 2.038 6.027.658 3.112 2.723 2.161.165 1.31 1.477 1.146 1.212-.526.391-2.818.228-2 1.375-1.344-.33-2.622 1.835-1.082-1.28-2.553 1.178-2.065 1.277-1.7055 2.165 1.5385.951-.067.883-3.1464.884-1.017 1.509.5561-.002-2.1299.622-.5578 1.837 1.0473.754-.7869.458-1.8679-.034-1.5402.292-3.1788.425-1.2782-.886-1.1129 1.507-1.5739 1.772 2.2268 1.639.3261 1.443-.3943-1.084-1.8342 3.342-2.6574 2.033-.3623.624 1.5722 1.082-.2957 1.245-1.1155.196-1.4096-.657-.9824.753-.7869 1.771.0969 1.212-.5258-.133-1.9007 2 .2275.655-1.1476 1.312-.1651 1.996-4.0324-1.444-1.7356-2.987-3.831-.819-.1634-1.245 1.1155-2.165-1.5385-.002-2.1299-1.444-1.7356.754-.7869-.755-1.343-2.655.92-2.788-.9807.065-1.1795-.003.0016ZM697.101 159.459l-1.116-1.245-1.902.133-1.607-.916-1.215-1.604-.789-2.883-.427-.851-1.509-.556-2.756-1.57-16.651 3.585-7.31 1.612-12.687 2.502-10.883 2.008-11.604 2.206-.792-5.013-1.474.984-6.192 4.986-1.703.854 2.505 14.808 1.614 9.435 2.867 16.84 14.458-2.404 14.356-2.766 12.687-2.501 15.931-3.387 8.031-1.809.655-1.148 1.376-1.344 2.721.03.164-.819 3.179-1.837.195-1.41.885-1.017 2.26-2.362 1.146-1.475-5.708-3.861-.723-1.933-1.312.165-.887-3.243 1.113-.885.228-1.999-1.346-1.376 1.147-1.475 1.342-2.885.097-1.769 1.638-1.804-.002-.001Z"/><path fill="#1D225F" stroke="#F0EFFC" stroke-linejoin="round" stroke-width="3.18187" d="m708.583 170.268-1.312.165-.326 1.639 1.672-.264-.034-1.54Zm22.379-15.224-1.442.394-2.685 3.64-2.295.821-4.556 1.053-1.147 1.475-3.573.396-.393.688-2.555 1.28-.424 1.278-1.703.854-1.112 3.015.886 1.113 1.998-1.902 1.738.686 1.737-1.443 2.425-1.051 1.736-1.443 3.737-1.216 2.719-2.099 1.672-.264 2.228-1.771 5.7-4.658-.558-.622-1.638 1.804-1.017-.884-1.147 1.475-1.442.394-.687 1.738-1.902.133.655-1.148 1.212-.525-.165-1.311.655-1.147 1.344-.755-.001.002Zm-49.231-60.907-2.262.2317-2.85 2.3288-1.507 1.5738-4.486 6.2627-.687 1.737.426.851-2.947 4.098-1.605 1.214-1.768 2.033 1.246 1.015.852-.427 1.049.294.461 2.392-1.474.984 2.167 3.669.034 1.54-.523.918-2.163.592-3.014 3.148-.294 1.049-3.179 1.838-5.016.791-2.196 1.181-1.18-.065-1.968-.817-4.852-.029-1.573.625-2.131.001-3.868 1.445-4.621 2.232.528 3.342 2.131-.002.133 1.901 1.182 2.195-.326 1.638-1.245 1.116-1.211 2.655-2.489 2.23-1.277 1.705-3.372 3.247.791 5.013 11.604-2.205 10.883-2.009 12.688-2.501 7.309-1.612 16.652-3.586 2.756 1.57 1.509.556.426.851.789 2.884 1.215 1.604 1.608.916 1.902-.134 1.116 1.245 12.101 3.856-.789-2.883.59.032.592 2.162.135 4.031 1.474-.984.425-1.279 1.178-2.065-1.574-1.505 2.882-2.919-1.247-1.014-2.438-13.859-.689-.393.219-12.646-3.357-14.382-.886-1.113-1.77-.097.227-1.999-1.643-4.586-.558-.622.161-2.949.393-.688-.592-2.162-.001-2.13-1.215-1.6041-.755-1.343.03-2.7197-.788-.7533-.429-2.9817-8.162 2.0389-8.882 2.2361-.005-.0042Z"/><path fill="#1D225F" stroke="#F0EFFC" stroke-linejoin="round" stroke-width="3.18187" d="m698.104 184.364-.981 2.786-2.196 1.181-1.506 1.574-.49 2.458.527 3.341 2.986 1.702 1.508.556 1.936 1.407 1.573-.624 2.328.719-.225 4.129 1.212-.526 1.309-2.295.522-3.047.785-1.377.72-2.327 1.143-3.605 1.376-1.345.687-1.737-.426-.851.227-2-.297-3.211.59.033-.267-5.932-.985-1.473-2.492.1-1.377-.785.489-2.458.754-.787.59.032.786-1.377.587-4.229-.296-1.081-12.102-3.857-1.638 1.804-.096 1.77-1.343 2.885-1.146 1.475 1.345 1.375-.227 1.999-1.114.886.888 3.243 1.312-.166.723 1.933 5.708 3.861-1.147 1.476-2.26 2.361v.004ZM688.932 191.913l-8.031 1.809-15.931 3.387-12.687 2.501-14.356 2.766 1.515 9.074 3.767-3.935 1.179-2.065 1.508.556.917-1.607 1.08-2.425.656.982 2.459.49 1.443-.395.326-1.638 1.934-.723.786-1.377 1.081-.296 2.526 1.44 1.212-.526.854 1.702.919.523 1.116 1.245.165 1.31 2.721.03 1.378.786.001 2.13 1.378.785 2.131-.002.657.982 1.738.687 1.015-1.246 2.296 1.308-1.407 1.935.133 1.901-.687 1.737-.852.426-.719 2.327.493 1.803.82.163 2.129-2.132 1.083 1.835 1.018.883 2.689.621 2.033-.363 2.656 1.21 1.607.916-.033-1.54-1.116-1.245-.854-1.702.065-1.179-2.133-2.128-.987-3.604-.426-.851.62-2.687-.526-1.212.983-.656-1.478-3.276.556-1.508-.787-.753 2.916-1.379 1.67-2.394.756 1.343-1.638 1.804-.883 3.147 2.23.359.133 1.901-1.015 1.246 1.378.785-.458 1.868-1.411-.195-.096 1.769 1.541-.034 1.377.785-.949 2.197.165 1.31-.851.426 1.903 1.997 3.247 1.243 1.475-.984 1.017.884-1.015 1.246 1.771.097-.392 2.818 3.574-.396.032-.59 3.372-1.117.458-1.868.36-.098.359-2.229 1.212-.526.326-1.638-.558-.622.326-1.639-8.621 1.777-2.565-9.369-3.389-11.662-.395-1.442.005.001Z"/><path fill="#1D225F" stroke="#F0EFFC" stroke-linejoin="round" stroke-width="3.18187" d="m675.276 212.108 1.408-1.934-2.297-1.309-1.015 1.247 1.05.294.787.753.067.95v-.001ZM693.679 189.444l-2.722-.03-1.375 1.344-.655 1.148.394 1.442 3.389 11.662 2.565 9.369 8.622-1.777.36-.099.131-.229-.625-1.572-.919-.523.458-1.868-.723-1.933-1.311.165-2.624-1.799-.067-.951-1.476-1.146-.789-2.883-.854-1.702-2.723-2.16.196-1.409-1.116-1.245 1.865-3.802-.001-.002ZM637.923 202.377l-14.458 2.405-2.867-16.84-2.097 1.542 1.674 1.866-.425 1.278.755 1.343-.556 1.508-.554 3.638.1 2.491-.851 2.556.068 3.081-2.129 2.131-.917 1.607-1.245 1.115-2.196 1.182-1.278-.425-.885 1.017-.065 1.179-1.442.395-.687 1.737.102 4.621-.852.426-2.525-1.44-.622.558-1.406 4.064.527 3.342-1.081.295-.391 2.819-2.426 1.05-1.18-.065.658 3.113-.457 1.868 2.527 3.569 1.017.884.527 1.212 1.246 1.014.657.983 1.608.915 1.246 1.015 2.361.129-.196 1.409.985 1.474 1.935 1.407.59.032 2.198.949 1.312-.166 2.522-2.82 1.936 1.408 1.343-.755 2.655-.92.884-1.017.196-1.41 1.64.326 2.588-1.869 1.279.424 2.228-1.771-.296-1.081.885-1.017-1.116-1.244.719-2.327 2.357-4.131.652-3.278 1.539-2.163-.033-1.54.916-1.607.161-2.949 1.279.425.985 1.473 3.18.293 1.048-1.836.359-2.229 1.537-4.293 1.738.686 1.342-2.884 1.082-.296 2.75-4.819-.363-2.032.524-.918.129-2.359 7.937 4.221.554-3.638-.165-1.31-1.116-1.245-.919-.523-.854-1.702-1.212.526-2.526-1.44-1.081.296-.786 1.376-1.934.723-.326 1.639-1.443.394-2.459-.489-.656-.983-1.08 2.426-.916 1.607-1.509-.556-1.179 2.065-3.767 3.935-1.515-9.075h.002ZM522.313 114.889l-1.047 1.835-1.213.526-.457 1.868-.786 1.377-.556 1.508.755 1.343.919.523.785-1.377.458-1.868 1.374-3.474-.232-2.261Zm-44.805-20.6703-2-.2275-2.297-1.3084-.523.9183-1.344.7549.325-3.7686 1.047-1.8359-1.116-1.2444-1.442.3943-1.998 1.9024-1.279-.4246-2.228 1.771-4.949 1.7407-2.033.3623-1.935-1.4071-1.048 1.8359-1.082.2957.239 10.7803-.884 1.017-4.257 2.133-.982 2.786-1.245 1.116.101 2.49 1.639.327 1.314 1.964-.982 2.787-.227 1.999.264 1.671-.623.557.56 2.752-.522 3.048 3.052 2.651 2.459.489 1.673 1.867 2.459.489 2.035 1.768 1.51 2.686 2.494 2.029 1.541-.033 1.607.916 1.805 1.637.789 2.883.201 4.98.822 2.293 1.279.425.296 1.081-1.08 2.426.823 4.423 1.249 3.144 1.148.655 3.64.553.953 2.064-.032.59 11.999-.765 14.356-.635 12.13-.993-.429-2.982.164-.819-.002-2.13-.886-1.113-.165-1.31-.985-1.473.294-1.049-.658-3.113.227-1.999.688-1.737-.002-2.13 1.08-2.426-.592-2.162-.133-1.901.882-3.147 1.015-1.246.655-1.147-.854-1.702.456-3.998 1.243-3.245.358-2.229-1.706-1.276-1.703.853-.753.787-1.342 2.885-1.737 1.443-1.573.625.652-3.278 1.342-2.885.295-1.049 2.196-1.181.227-1.999-1.706-1.277.065-1.179.588-2.098-2.95-.161.818-1.967-.266-3.8-1.476-1.146-2.23-.358-.69-2.523-.919-.523-2.001-.227-2.689-.62-1.212.525-2.459-.489-3.936-1.636-12.986-2.8389-1.609-3.0457-2.099-.5881-.197-.7204-.001-.0042Z"/><path fill="#1D225F" stroke="#F0EFFC" stroke-linejoin="round" stroke-width="3.18187" d="m698.003 222.935-.259 2.589-1.246 1.115.296 1.081-1.44 2.525.787.753-.851 4.686.295 1.081 1.182 2.195.128-4.489.687-1.737 2.911-7.769.884-1.017-.395-1.441.425-1.278-3.372 1.117-.032.59v-.001Zm-34.639-18.222-.554 3.638-7.937-4.221-.129 2.359-.524.919.363 2.031-2.75 4.819-1.082.296-1.342 2.885-1.738-.687-1.537 4.294-.359 2.228-1.048 1.836-3.18-.292-.985-1.474-1.279-.424-.161 2.949-.916 1.606.034 1.54-1.54 2.164-.652 3.277-2.357 4.131-.719 2.327 1.116 1.245-.885 1.017.296 1.081-2.228 1.771-1.279-.425-2.588 1.87-1.64-.326-.196 1.409-.884 1.017-2.655.92-1.343.755-1.936-1.407-2.522 2.82-1.312.165-2.197-.948-.591-.032-1.935-1.408-.985-1.473.196-1.41-5.044 5.641-3.702 2.756-.885 1.017-.195 1.409-1.737 1.444-.195 1.409-2.688 1.51-.556 1.508-1.573.625-2.327 1.411-1.311.165-2.096 1.542 12.162-1.583 12.883-1.781.622-.557 3.574-.396.459.262 6.065-.497 7.868-.99 8.588-1.188 8.72-1.416 11.965-2.304 11.018-2.238 8.981-1.875 13.178-2.83 4.917-1.151.229.131.721-.197-.56-2.752.361-.098 1.281 2.553.59.032-2.725-4.291-.723-1.932-2.033.362-2.229-.359-.327 1.639-2.36-.129-1.805-1.637-1.41-.196-1.215-1.604-2.756-1.57 4 .455.395 1.441 2.558.851.656.983 1.835-1.083.065-1.18-.886-1.113-2.557-.851 1.015-1.246-.822-2.293 1.18.065 1.015-1.246-1.837-1.048-1.575-1.505 1.082-.296-.002-2.13.687-1.737-.394-1.442-4.428-1.307-.066-.95-1.476-1.146-3.803.266-1.279-.425-1.345-1.375-.166-1.311-3.047 1.608-.59-.032-.953-2.063.686-3.867 1.18.065.195-1.41.852-.426-.331-2.621-.558-.622-1.049-.294-1.739-.687-.656-.982-2.131.002-1.378-.786-.002-2.13-1.377-.785-2.721-.03-.003-.004Z"/><path fill="#1D225F" stroke="#F0EFFC" stroke-linejoin="round" stroke-width="3.18187" d="m587.098 267.985-.983.656-13.081 1.06-7.376.662-4.294.593-9.508.664-5.934.267-9.048.925-10.95 1.058-.689-.392-2.721-.031.528 3.342-7.737.76-12.721.961-.951.067-.951.066.592 2.162-1.245 1.116.526 1.211-1.672.264 1.444 1.736-.753.786-.818 1.967.984 1.474-1.31.165.755 1.343-.884 1.017-2.426 1.05.625 1.572-.524.919.657.982-1.573.624-.065 1.18-1.015 1.246-.227 1.999.624 1.573-.195 1.409-1.05-.294-.687 1.737-1.113.886 15.802-1.03 16.16-1.128-.099-.36 10.098-.631 11.769-.895 16.785-1.685 11.08-1.288 8.229-1.088-.135-4.031.523-.918 2.262-.232.655-1.148.359-2.228 1.638-1.804 2.196-1.181 3.344-.528 3.372-3.247 2.457-1.64 1.311-.165 1.013-3.379 1.05.294.424-1.278 1.966-1.312.985 1.473 1.212-.526 1.179-2.065 2.687-1.509 1.738.686.754-.787 1.112-3.015 2.391-2.591-.002-2.13.687-1.737-3.573.396-.622.558-12.884 1.78-12.162 1.583.005.004ZM620.599 187.936l-1.615-9.435-2.504-14.809-6.357 3.676-4.063 2.854-3.8 4.525-2.654.92-2.361-.129-2.687 1.51-1.573.625-1.836 1.082-1.607-.916-2.852.199-1.114.886-.656-.983-2.133-2.128-2.001-.227-1.246-1.015-2.131.002-11.343 1.746-6.917.924.892 7.503 1.32 10.484 1.52 13.335 1.719 16.186 1.474-.984 1.247 1.014 2.524-.69 2.066 1.178 2.168 3.668 1.639.326 1.672-.263 1.64.326 2.395 1.669.819.163 1.506-1.574 2.46.49 1.017.884 2.524-.69 1.048-1.836 2.064-.952 1.379 2.915 1.739.687 2.034 1.767 1.18.065 2.425-1.051.392-2.818 1.081-.296-.528-3.341 1.407-4.064.622-.558 2.525 1.44.852-.427-.102-4.62.687-1.737 1.442-.395.065-1.179.884-1.017 1.279.424 2.196-1.181 1.245-1.115.917-1.607 2.129-2.132-.068-3.08.851-2.556-.1-2.491.554-3.638.556-1.508-.755-1.343.425-1.278-1.674-1.866 2.097-1.542v-.002Z"/><path fill="#1D225F" stroke="#F0EFFC" stroke-linejoin="round" stroke-width="3.18187" d="m699.402 249.272-.36.099-.721.197.787.753.655-1.147-.361.098Zm-1.31.166-4.918 1.15-13.177 2.83-8.982 1.875-11.018 2.238-11.965 2.304-8.719 1.417-8.589 1.187-7.868.99-6.064.497-.46-.262-.687 1.737.002 2.13-2.391 2.591-1.112 3.015-.753.787-1.739-.687-2.687 1.51-1.179 2.065-1.212.526-.984-1.474-1.966 1.313-.425 1.278-1.05-.294-1.013 3.379-1.311.165-2.457 1.64-3.372 3.247-3.344.528-2.196 1.181-1.638 1.804-.359 2.228-.655 1.148-2.261.232-.524.918.135 4.031 7.868-.99 10.031-1.582 4.489-2.002.951-.067 2.589-1.87 3.868-1.445 7.737-.76 10.359-1.091.985 1.474 1.245-1.116 2.592 2.39.691 2.522 15.997-2.438.591.032 7.646 5.269 11.744 8.215 4.589-1.642 3.442-.167.655-1.147 1.081-.296-.068-3.08.326-1.639 1.735-3.573 1.769-2.033 2.096-1.542 1.507-1.574.655-1.148 4.162-2.493 3.573-.396 1.147-1.476.819.164 2.063-3.082-.886-1.113-2.721-.031-1.344.755-1.507 1.574-2.689-.62 2.524-.69 2.424-3.18-1.738-.687 2.326-1.411-.394-1.442-2.951-.161-3.38-1.013 2.852-.198 1.639.326-.001-2.13 1.444 1.735.851-.426 2.82.391 1.672-.264 2.88-5.048 1.835-1.083.196-1.409-.461-2.392-1.444-1.736-1.148-.655-1.54 2.164.56 2.752-1.279-.425-.625-1.572.129-2.359-2.261.231-2.458 1.641-1.41-.196-1.114.886-2.622.33.227-1.999 2.361.129 1.506-1.574 3.016-1.019 2.129-2.131 2.492-.101-1.676-3.996-1.607-.916-.625-1.572.002-.006ZM598.015 232.852l-2.034-1.768-1.739-.687-1.379-2.915-2.064.952-1.048 1.836-2.524.69-1.018-.884-2.459-.489-1.506 1.574-.819-.164-2.395-1.669-1.64-.326-1.672.264-1.639-.326-2.168-3.669-2.066-1.178-2.524.69-1.247-1.014-1.474.984-.523.918.656.983-.556 1.508 1.41.195-.227 2-2.524.69-2.458 1.64-1.148-.654-2.622.33-.032.59.821 2.293-1.539 2.164-1.113.885-.36 2.229-1.474.984-.689-.393-.916 1.607-.03 2.72-.524.917-1.212.526-2.23-.359-1.377-.785-.166-1.311-1.933.723-1.408 1.935.264 1.671-3.114.658-1.215-1.605-3.081 2.199-.457 1.867-5.084-2.289-1.702.854-.655 1.147-1.149-.654-1.803.493-1.377-.786-.097 1.77-.524.917-1.41-.195-.164.819-1.309 2.295 1.314 1.964-.524.919-2.524.69-2.294.821-.557 1.508.165 1.311 1.215 1.604-.687 1.737-2.23-.359-4.165-1.766-2.032.363-1.572 2.754.854 1.702-.359 2.228.363 2.032-.852 2.556-.622.557-1.608-.915-.851 2.556 12.721-.961 7.737-.76-.528-3.342 2.721.03.689.393 10.95-1.058 9.048-.925 5.935-.267 9.507-.664 4.294-.593 7.376-.662 13.081-1.06.983-.656 2.097-1.542 1.311-.165 2.326-1.411 1.573-.625.557-1.508 2.687-1.509.196-1.41 1.736-1.443.196-1.41.884-1.017 3.703-2.756 5.043-5.64-2.36-.129-1.247-1.015-1.607-.916-.657-.982-1.247-1.014-.526-1.212-1.018-.884-2.527-3.57.458-1.868-.658-3.112-.002.004Z"/><path fill="#1D225F" stroke="#F0EFFC" stroke-linejoin="round" stroke-width="3.18187" d="m559.153 177.244-.067-.95-7.147.793-12.754 1.551-7.967.629-2.228 1.771-3.507 1.347-1.869-.458-1.476-1.146 1.59 18.544.96 10.583 1.127 14.024-1.015 1.246.264 1.67-.884 1.017 1.511 2.686.558.622.033 1.54.953 2.064-.556 1.508-.754.787-.687 1.737.328.491-1.376 1.345.197.72-1.178 2.065-1.443.395-.687 1.737 1.018.884-1.245 1.115-.294 1.049.462 4.522 1.411.196.523-.918.097-1.769 1.378.785 1.803-.493 1.148.655.655-1.148 1.703-.853 5.083 2.289.458-1.868 3.08-2.198 1.215 1.604 3.114-.658-.264-1.671 1.408-1.934 1.934-.723.165 1.31 1.378.785 2.229.359 1.212-.526.524-.917.03-2.72.917-1.606.688.392 1.475-.984.359-2.228 1.114-.886 1.539-2.164-.822-2.293.032-.59 2.623-.33 1.148.655 2.457-1.641 2.524-.69.228-1.999-1.411-.196.557-1.508-.657-.982.523-.918-1.718-16.186-1.52-13.335-1.32-10.485-.892-7.502.005.001Z"/><path fill="#1D225F" stroke="#F0EFFC" stroke-linejoin="round" stroke-width="3.18187" d="m517.205 167.024-12.13.994-14.356.635-12 .764-.262.459 2.855 1.931.822 2.294 3.313 2.192.624 1.572-.685 3.868-1.376 1.344-.391 2.818-1.245 1.116-2.163.591-1.376 1.345-3.934.495-.884 1.017-.359 2.228.165 1.31 1.378.785.526 1.212.1 2.491-1.769 2.033-.259 2.589-.754.787-2.786 1.149.266 3.801-.721.197-.786 1.376-.259 2.589.559 2.752.526 1.212.034 1.54 1.511 2.686 3.74 3.044.985 1.474 3.313 2.192 1.412 2.325.626 3.702.526 1.212 1.148.654 2.097-1.541 3.607 1.143.886 1.113-.916 1.607.133 1.9-.687 1.738-1.668 4.523.853 1.702 3.479 3.503 1.509.557 1.279.424 1.246 1.015 1.739.686 1.313 1.965 1.279.425.69 2.522 1.182 2.195-.195 1.41-.688 1.737 3.184 4.552.983-.656 1.247 1.014.82.164-.854-1.702 1.571-2.755 2.032-.362 4.166 1.766 2.229.359.688-1.737-1.215-1.604-.165-1.311.556-1.508 2.295-.821 2.523-.69.524-.919-1.313-1.964 1.309-2.295.163-.819-.462-4.522.294-1.049 1.245-1.116-1.018-.884.687-1.737 1.443-.394 1.178-2.065-.197-.721 1.376-1.344-.328-.491.687-1.738.754-.787.556-1.508-.953-2.063-.033-1.54-.558-.622-1.511-2.686.884-1.017-.264-1.671 1.015-1.246-1.127-14.023-.96-10.583-1.59-18.544-.886-1.113-1.15-2.785-.69-2.522-1.148-.655-1.15-2.785.095-3.899-.004-.001ZM670.538 305.2l-11.744-8.215-7.646-5.269-.591-.032-15.997 2.438-.691-2.522-2.592-2.39-1.245 1.116-.985-1.474-10.359 1.09-7.737.76-3.868 1.445-2.589 1.871-.951.066-4.49 2.003-.424 1.278-2.031 2.492-.228 2 .558.621 3.116 1.472 1.936 1.407 2.36.129.755 1.343.985 1.474.723 1.933 2.494 2.029.624 1.572 3.576 1.734 1.935 1.407 1.182 2.195 2.558.851 1.935 1.407.133 1.901 1.739.687.394 1.441 1.116 1.245 3.936 1.635.724 1.933 1.116 1.244.854 1.702.232 2.26 2.886 1.342.787.753.822 2.293.657.983.133 1.901 1.444 1.735.951-.066 2.099.588.032-.59 1.998-1.903.786-1.376-2.165-1.539.393-.688 2.066 1.178 1.442-.394 1.408-1.935-.755-1.343-1.509-.556.294-1.049 1.968.817 1.311-.165 2.49-2.23 2.064-.952 1.638-1.804.196-1.41 1.474-.984 1.67-2.393.228-2 1.41.196 1.573-.624 2.095-3.672.357-4.359 2.258-4.49 2.063-3.082 2.621-2.46.002-.001ZM523.291 304.61l-16.16 1.128-15.802 1.03.755 1.343-1.245 1.115-1.703.854.166 1.31-1.443.394-.458 1.868.296 1.081-.161 2.949-3.341 2.657-.557 1.508-1.245 1.116 1.018.884-.295 1.049-2.654.92.886 1.113-.524.917.526 1.212-2.129 2.131.755 1.343-1.048 1.836 1.477 1.146-.097 1.769-.655 1.148 1.246 1.014.134 1.901-.983.656.133 1.901 1.444 1.736-.655 1.147-.326 1.639.919.523-1.015 1.246.066.951 1.116 1.244.133 1.901 2.855 1.931-2.16 4.851-.425 1.278-.983.657-1.408 1.934-1.212.526-.949 2.196-.292 3.179-1.376 1.345.624 1.572-.719 2.327-1.442.394.526 1.212-.294 1.049.854 1.702-1.245 1.115 15.08-.832 15.441-.931.067.95-1.471 5.244.952 2.064 2.035 1.767.789 2.883.984 1.474.919.523 1.311-.165.425-1.278 1.113-.886 5.084-1.97 1.245-1.116 1.41.196 1.706 1.276 2.852-.199 1.64.326 1.015-1.246-2.112-15.497-1.584-12.155.578-14.877.318-10.161.319-10.161.024-9.109.384-11.338-1.444-1.736-.008.006Z"/><path fill="#1D225F" stroke="#F0EFFC" stroke-linejoin="round" stroke-width="3.18187" d="m637.24 357.69.851-2.557-.951.067-.588 2.098.688.393v-.001Zm3.89-12.689-2.099-.588-.951.067-1.444-1.736-.133-1.901-.657-.982-.822-2.294-.787-.753-2.887-1.341-.231-2.261-.854-1.702-1.116-1.244-.724-1.933-3.936-1.635-1.116-1.244-.394-1.442-1.739-.687-.133-1.9-1.935-1.408-2.558-.85-1.182-2.195-1.935-1.407-3.576-1.734-.624-1.572-2.494-2.03-.723-1.933-.985-1.473-.755-1.343-2.361-.129-1.935-1.407-3.116-1.472-.558-.622.228-1.999 2.031-2.493.424-1.278-10.03 1.582-7.868.99-8.229 1.088-11.08 1.288 1.184 4.324 2.499 8.419 2.763 10.09 3.978 13.824.822 2.294.558.622 1.15 2.784 1.444 1.736.625 1.572.363 2.031 1.246 1.015-1.736 1.443-.294 1.049.1 2.49-1.013 3.379.821 2.293.985 1.474.395 1.442-.39 4.948.264 1.67 1.575 1.506.264 1.671 1.083 1.834.822 2.293.919.524 10.557-.37 10.097-.631 8.917-.696 12.36-.863.92 2.653.787.753 1.804-.493.095-3.899-.886-1.113-.034-1.54.916-1.607.951-.066 3.509.783 3.311.063-.92-2.653-.002-2.13 1.245-1.116-1.019-3.014 1.148.655 1.441-2.524-1.148-.655-.854-1.702.521-3.047 1.343-2.885 1.867-1.672-.493-1.803 1.41.196 1.932-2.853-.919-.523.001-.002Z"/><path fill="#1D225F" stroke="#F0EFFC" stroke-linejoin="round" stroke-width="3.18187" d="m656.165 407.711-1.049-.294-.885 1.017.429 2.981 1.015-1.246.49-2.458Zm-101.126-21.148-4.196.954-.262.459 4.458-1.413Zm80.54-15.831-3.311-.062-3.509-.784-.951.067-.916 1.606.034 1.54.886 1.113-.096 3.9-1.803.493-.787-.754-.921-2.653-12.359.863-8.917.696-10.098.631-10.557.37-.918-.523-.822-2.294-1.084-1.834-14.883 1.553-10.133 1.221-15.703 1.39-.49 2.457 2.232 2.488 1.706 1.277-.458 1.868.526 1.211 1.05.294-.818 1.967 1.509.556 2.424-3.181-.134-1.9 1.575 1.505.622-.558 1.476 1.146-1.605 1.214 5.737-.988 2.917-1.378 1.41.195 1.703-.853 2.459.489-1.344.755-2.064.952 4.919.979 3.476 1.374 2.066 1.177-.723-1.932 1.082-.296.821 2.293 5.479 3.731.985 1.474.362 2.031 2.655-.92 3.933-.495 2.327-1.411 1.015-1.246 2.228-1.771 2.591.259-.067-.95-1.77-.097 1.015-1.246 1.736-1.443 1.902-.133 1.934-.723 2.985 1.702.951-.067 2.066 1.178 1.575 1.506 1.313 1.964 2.099.589.331 2.621 3.345 1.602 1.084 1.834 1.279.425 1.214 1.604 2.984-.429 1.247 1.015.591 2.162 1.346 1.375.819.163.429 2.982.3 5.341-1.339 5.014.624 1.573-.65 5.407.819.163 2.264 1.899.72-.198.49-2.457-.426-.851-1.968-.817.326-1.639 1.509.556 2.066 1.178.852-.427.952 2.064-2.062 3.082-.228 1.999-1.344.755.395 1.442 1.377.785.363 2.031 4.07 5.665 1.214 1.605 2.1.588.62-2.688 1.476 1.146.167 3.44 1.15 2.784 2.066 1.178 1.311-.165.362 2.032.427.851.986 3.603 2.624 1.8-.294 1.049 2.262-.232 2.919.751 1.476 1.145 2.594 4.52 1.412 2.325 1.148.655 2 .227 1.018.884-.295 1.049-2.328-.719-1.247-1.014-.227 1.999 1.805 1.637 2.884-.788.885-1.017 2.459.489 1.899-2.262 2.721.03.196-1.409 1.277-1.705-.822-2.294.129-2.359.719-2.327.622-.558-.133-1.9.754-.787-.167-3.44-.135-4.031-.431-5.112.262-.459-.954-4.193-1.019-3.014-1.74-2.817-.59-.032-3.809-6.124-1.15-2.784-7.977-12.151-1.676-3.996-.657-.982-.822-2.294 1.968.818.002 2.13 2.622-.331.723 1.933-.129 2.359.298 3.211.721-.197-.757-3.473.655-1.147-.724-1.933-7.35-8.451-5.68-8.711-1.577-3.635-3.778-8.844-.264-1.671-1.182-2.195-.298-3.211-1.049-.294.009.007Z"/><path fill="#1D225F" stroke="#F0EFFC" stroke-linejoin="round" stroke-width="3.18187" d="m561.85 301.038-16.785 1.685-11.769.894-10.097.631.098.361 1.444 1.736-.383 11.338-.025 9.109-.318 10.161-.319 10.161-.577 14.877 1.583 12.155 2.112 15.497.492-.327 4.098.815-.001-2.13.554-3.638 1.671-.264.724 1.933-.425 1.278.656.983 2.264 1.898-.196 1.41 3.245-.888.163-.819 1.475-.984 1.146-1.475-.426-.851-.526-1.211.457-1.868-1.706-1.277-2.231-2.488.49-2.457 15.703-1.391 10.133-1.22 14.883-1.553-.264-1.671-1.575-1.506-.263-1.67.389-4.949-.394-1.441-.985-1.474-.822-2.293 1.013-3.379-.1-2.49.294-1.049 1.737-1.443-1.247-1.015-.363-2.031-.624-1.572-1.444-1.736-1.15-2.784-.558-.622-.822-2.294-3.979-13.824-2.763-10.09-2.498-8.419-1.185-4.324-.004-.005ZM720.511 127.493l-1.772-2.227.359-2.228-.43-5.112.163-.819-1.086-3.964.589-2.098-.264-1.671.786-1.376-.134-1.901.75-5.047-.691-2.5225.425-1.2781 1.703-.8535 1.769-2.033.882-3.1469-1.772-2.2268.883-3.1468-.592-2.162-10.096 2.761-13.209 3.419.429 2.9817.787.7532-.03 2.7197.755 1.343 1.215 1.6042.001 2.1298.592 2.162-.393.688-.161 2.949.558.622 1.643 4.586-.227 1.999 1.77.097.886 1.113 3.357 14.382 10.555-2.5v.003ZM744.098 144.285l-.69-2.523-1.18-.065.887 3.243.983-.655Zm-2.56-2.98-1.837-1.047-1.083-1.834-.362-2.031-5.54 1.708 2.368 8.649.493 1.802-.227 1.999 3.179-1.837 1.442-.395.228-1.999-.724-1.933.293-3.179 1.77.097Z"/><path fill="#1D225F" stroke="#F0EFFC" stroke-linejoin="round" stroke-width="3.18187" d="m741.19 115.251-1.476-1.146-.165-1.31-2.723-2.16-.659-3.113-2.038-6.027-4.372-13.136-3.878-11.3346-.425 1.2781-2.001-.2274-1.015 1.2461-.356 4.3584.591 2.1619-.882 3.1469 1.772 2.2268-.883 3.1468-1.768 2.0331-1.703.8535-.425 1.2781.69 2.5223-.749 5.047.133 1.901-.786 1.376.264 1.671-.588 2.098 1.086 3.964-.164.819.431 5.112-.359 2.228 1.772 2.227 15.342-3.421 4.16-4.624 1.442-.395.26-2.589-.526-1.211-.002-.001ZM732.718 138.1l-.099-.36-12.721 3.091-9.473 2.204 2.438 13.859 1.247 1.014-2.882 2.919 1.575 1.505.983-.656 4.717-4.002 4.784-3.052 1.311-.165.754-.787 1.41.196.983-.657 1.803-.492 1.245-1.116 1.18.065 2.688-1.51.689.393.227-2-.493-1.802-2.368-8.648.002.001ZM385.393 444.976l-.59-.032-2.554 5.54.951-.067 2.192-5.441h.001Zm2.587-4 3.046-3.738-.919-.523-.95 2.196-1.178 2.065h.001Zm10.418-8.659-1.77-.097-3.211 2.427-1.672.264.526 1.212 1.246-1.116 4.882-2.691-.001.001Zm26.015-18.929-2.03 2.492 3.309-2.068-1.279-.424Zm4.224-79.401-.59-.032-3.346-1.602-1.869-.458-1.673-1.866-1.05-.294-2.756-1.57-.655 1.147-1.343.755-2.82-.391-.886-1.113-2.688 1.51-1.311.165-1.148-.655-1.703.854-1.671.264-.655 1.147-1.541.034-.655 1.147-1.215-1.604-1.18-.065-1.247-1.014-1.116-1.244-.655 1.147-2.459-.489-.985-1.474-2.391 2.591-.425 1.278-.95.066-.657-.982.556-1.508-.558-.622-2.554 1.28-1.18-.065-.296-1.081-1.411-.195-.394-1.442-1.41-.195-1.868 1.672-1.212.526-1.148-.655.195-1.409-2.197-.949-.002-2.13-1.672.264-2.099-.588-1.015 1.246-1.31.165-1.215-1.604-2.262.231-2.328-.718-1.149-.655-.95.067-2.69-.621.097-1.769-.984-1.473-1.837-1.048-.196 1.41-2.328-.719-2.033.362-2.888-3.471-1.77-.097.74-15.696.678-12.387.288-7.439-10.984-.482-15.574-.969-17.575-1.198-.59-.032-.552 5.768-1.199 15.435-.91 10.127-1.429 15.3-1.46 18.024-1.559 17.663-13.902-1.234-13.901-1.233-17.182-1.886-11.18-1.202.887 3.243 1.116 1.244 2.067 1.178.92 2.653 1.511 2.686 2.656 1.21 1.772 2.227 1.412 2.325 2.363 2.259.526 1.212 2.79 3.11 2.066 1.178 1.903 1.997 1.378.785 1.641 2.456.363 2.031 1.347 3.505.755 1.343-.522 3.048.264 1.671 1.379 2.915.461 2.392 1.215 1.604 1.476 1.146 1.411.195 2.986 3.831 1.837 1.047 2.23.359.066.951 1.707 1.276 2.099.588.984 1.474 1.477 1.146 1.18.065 2.557.851.655-1.148 2.13-2.132 1.573-.624.359-2.228 2.029-4.623 1.801-2.622 2.753-.56 1.64.326.785-1.376 1.212-.526 2.986 1.702 2.131-.002 5.509 1.011 1.311-.165 2.328.719.625 1.572.787.753 1.18.065 1.412 2.325 1.476 1.146.395 1.442 3.182 2.422.723 1.933 1.247 1.014.627 3.702 1.772 2.227.133 1.901 1.542 2.095 1.579 5.766 1.215 1.604 2.066 1.178 1.052 2.424 2.002 2.357.133 1.901.919.523 1.542 2.095 1.869.458 1.346 1.375-.196 1.409.756 1.343-.688 1.738 1.052 2.424-.621 2.687 1.608.916.165 1.31 1.476 1.146.657.983.034 1.54 1.345 1.375-.719 2.327.787.753.592 2.162 2.001.227 1.148.655 1.541-.034.984 1.474 1.476 1.146 1.082-.296 3.476 1.373 1.215 1.605 1.378.785 4.721.258 2.361.129 1.869.457 4.429 3.437 2.949-1.969 1.901-.133-.033-1.54-1.605 1.214-.034-1.541-1.247-1.014.196-1.41-.854-1.701.065-1.18-1.707-1.276.589-2.098-1.053-4.554-1.018-.884.194-3.54 1.082-.295-.264-1.671.851-.426.26-2.589-1.344.755-2-.228.065-1.179 1.703-.854 1.869.457 2.715-6.359-1.476-1.146-.493-1.802-1.771-.097-.426-.851 4.262-.003 1.377.785 2.685-3.64-1.509-.556-.294 1.049-1.476-1.146 1.015-1.246 4.623-.102 1.638-1.804-.034-1.54-.854-1.702 1.082-.295 1.772 2.226 4.257-2.133-1.772-2.227-1.148-.654.425-1.278 1.869.457.884-1.017.657.983 1.474-.985.724 1.933 6.423-2.725 2.131-.002 1.573-.624 2.949-1.969.721-.198 3.604-3.115-.133-1.901 1.474-.984 2.784-3.279-.788-.753-1.412-2.326.062-3.309 2.427 1.079.818-1.966 1.082-.296.984 1.473-1.013 3.379 2.393-.461-.687 1.737 9.471-4.333 3.082-.068-1.083-1.834.326-1.639.95-2.196.951-.067 1.277-1.705-.135-4.031-.493-1.802.655-1.148-.592-2.162.622-.557 1.767-4.163.719-2.327-.886-1.113.983-.657-2.562-5.105.294-1.049-2.757-3.701.129-2.359-1.479-3.276-2.263-1.898-.278-18.712-.272-10.195-.689-.393-3.18-.292-1.344.755-1.575-1.506.003-.001Z"/><path fill="#1D225F" stroke="#F0EFFC" stroke-linejoin="round" stroke-width="3.18187" d="m473.158 409.539 1.277-1.705-3.38-1.013-1.573.624.067.951 2.886 1.341.721-.197.002-.001Zm35.855-14.842-.919-.523-.985-1.474-.789-2.883-2.034-1.768-.953-2.063 1.471-5.244-.066-.95-15.441.931-15.081.832 1.245-1.115-.854-1.702.295-1.049-.527-1.212 1.443-.394.719-2.327-.625-1.572 1.376-1.345.293-3.179.949-2.196 1.212-.526 1.408-1.935.983-.656.425-1.278 2.159-4.851-2.854-1.931-.133-1.901-1.116-1.245-.067-.95 1.015-1.246-.919-.523.326-1.639.655-1.147-1.444-1.736-11.277.567-8.426.367-10.917.469-13.868.306.278 18.713 2.264 1.898 1.478 3.276-.129 2.359 2.758 3.701-.295 1.048 2.562 5.106-.983.657.886 1.113-.719 2.327-1.767 4.163-.622.557.592 2.162-.655 1.148.493 1.802.135 4.031-1.277 1.705.558.622-.458 1.868-1.474.984.854 1.702 1.573-.625 4.655-.692 4.033-.135 2.689.62 5.674 2.321 2.23.358 4.459.717 2.196-1.181.393-.688-.755-1.343.294-1.049 2.065-.952.262-.46 2.262-.231-.557 1.508 3.082-.068 1.05.294-.327 1.638 1.312-.165.592 2.162 3.64.554.622-.558.953 2.063-1.54 2.164 1.608.916 2.558.851 2.229.359 1.672-.264 2.198.949 1.964-3.443 2.852-.199 2.328.719-.326 1.639.985 1.473 2.228-1.771-.363-2.031.917-1.607-1.02-3.013 1.837 1.047 1.082-.296 2.165 1.538.426.851 2.198.949.328.491 2 .228 1.872 2.587 1.148.655 2 .227 2.49-2.23-1.674-1.866-1.444-1.736-2.261.232-1.608-.916-1.311.165-.394-1.441-2.1-.588-.984-1.474 1.212-.526 2.718-4.229.787.753 1.277-1.705-1.738-.687-.1-2.49-2.327 1.411-.588 2.098-.951.066-2.624-1.799.588-2.098-1.608-.916-.655 1.147-1.605 1.215-2.032.362-2.919-.752-1.476-1.146.327-1.638 2.783-3.279 2.591.259 1.673 1.866 3.181.293.886 1.113 2.983-.429.002.004ZM399.328 108.047l-12.065-.186-12.065-.186-11.934-.416-12.033-.776-5.901-.322-11.802-.646-9.083-.615-14.852-1.167-6.591-.715-1.427 17.434-.23-.131-.617 6.948-1.234 13.894-1.462 15.893 13.902 1.234 11.443.744 9.315.745 13.573.743 11.443.744 15.016.347 3.182 2.422 3.215 1.833.951-.067 1.146-1.475 2.591.259 2.131-.001 2.622-.331 2.395 1.669 3.607 1.144.657.982 1.41.196.067.95 1.215 1.604 1.639.326-.461-2.392-1.673-1.866 1.048-1.836.949-2.196-.165-1.31.785-1.377-.362-2.032-1.18-.064.391-2.819-.592-2.162 1.77.097.317-12.288-.039-7.93.119-13.009-1.444-1.735-1.639-.326-2.168-3.669.164-.819 2.72-2.099 1.243-3.246-.007.001ZM426.068 281.432l.025-9.11-10.426.14-10.065.042-16.919-.215-13.476-.382-13.475-.382-6.853-.256-13.572-.742-13.572-.742-10.623-.581-13.902-1.233-.746 9.31 17.574 1.197 15.575.97 10.984.482-.288 7.438-.678 12.387-.74 15.697 1.77.097 2.888 3.471 2.033-.363 2.328.719.195-1.409 1.837 1.047.985 1.473-.097 1.77 2.689.62.951-.067 1.148.655 2.329.719 2.261-.232 1.215 1.604 1.311-.165 1.015-1.246 2.099.588 1.672-.264.001 2.13 2.198.949-.195 1.409 1.148.655 1.212-.526 1.867-1.672 1.411.195.394 1.442 1.41.195.296 1.081 1.18.065 2.555-1.28.558.622-.557 1.508.657.983.951-.067.425-1.278 2.391-2.591.984 1.474 2.459.489.655-1.147 1.116 1.244 1.247 1.015 1.18.065 1.215 1.604.655-1.148 1.541-.033.655-1.148 1.672-.264 1.703-.853 1.148.654 1.311-.165 2.687-1.51.886 1.113 2.82.391 1.344-.755.655-1.147 2.756 1.57 1.049.294 1.674 1.867 1.868.457 3.346 1.603.59.032.091-8.159.282-15.959-.04-7.93-1.121-7.633-1.781-12.876-.001-.002Z"/><path fill="#1D225F" stroke="#F0EFFC" stroke-linejoin="round" stroke-width="3.18187" d="m399.547 171.128-1.639-.326-1.215-1.605-.067-.95-1.41-.196-.657-.982-3.607-1.143-2.395-1.669-2.622.33-2.131.002-2.591-.26-1.146 1.475-.951.067-3.215-1.832-3.182-2.423-15.016-.347-11.443-.744-13.573-.742-9.315-.746-11.443-.744-13.901-1.233-1.593 16.126-.974 11.306-.975 9.176 10.361 1.04 9.902.777 7.443.288-1.36 18.384 9.315.746 8.852.484 17.475.836 14.885.577 8.754.124 11.934.416 8.754.123 14.688-.144-1.378-.785.065-1.179-3.085-4.192-.888-3.243-.985-1.473.065-1.18-1.476-1.146.425-1.278-.167-3.44-.328-.491-.068-3.081-.558-.621.588-2.098-1.049-.294.359-2.229-2.165-1.538-.133-1.901.391-2.818-.886-1.113-.232-2.261-1.345-1.375-.296-1.081-.985-1.473.097-1.77-.755-1.343.129-2.359-1.279-.424-.003-.005Z"/><path fill="#1D225F" stroke="#F0EFFC" stroke-linejoin="round" stroke-width="3.18187" d="m469.803 209.042-1.575-1.506-2.165-1.539-.526-1.211-2.983.429-16.034.899-6.524.235-6.294.365-6.394.006-6.393.006-11.705-.285.984 1.474.888 3.243 3.086 4.192-.065 1.179 1.377.785 1.805 1.637 1.608.916.982-.656 1.936 1.407-.326 1.639-.82-.164-1.146 1.475-.852 2.557 2.691 2.75 1.15 2.784 2.985 1.702.11 13.14.074 9.47.408 16.351-.024 9.109 12.196-.043 12.098-.403 16.127-.539 12.228-.633 13.18-.7 1.412 2.326.033 1.54-.785 1.376-1.213.526-1.67 2.394-.556 1.508 9.638-.893.818-1.967.753-.786-1.444-1.736 1.672-.264-.526-1.211 1.245-1.116-.592-2.162.951-.066.951-.067.852-2.556 1.607.916.622-.558.852-2.556-.363-2.032.359-2.228-.819-.164-1.247-1.014-.983.656-3.184-4.552.687-1.737.196-1.41-1.182-2.195-.69-2.522-1.279-.425-1.314-1.965-1.738-.686-1.247-1.015-1.279-.424-1.509-.556-3.478-3.504-.854-1.701 1.669-4.524.687-1.737-.134-1.901.917-1.607-.886-1.113-3.607-1.143-2.097 1.542-1.148-.655-.526-1.211-.626-3.703-1.413-2.325-3.313-2.192-.984-1.474-3.741-3.044-1.51-2.686-.034-1.54-.526-1.212-.56-2.751.26-2.589.786-1.377.003-.003Z"/><path fill="#1D225F" stroke="#F0EFFC" stroke-linejoin="round" stroke-width="3.18187" d="m426.093 272.316-.408-16.351-.074-9.47-.109-13.14-2.985-1.702-1.15-2.784-2.691-2.75.851-2.556 1.147-1.476.819.164.326-1.639-1.935-1.407-.983.656-1.608-.915-1.804-1.637-14.688.144-8.754-.124-11.934-.416-8.754-.123-14.885-.578-17.475-.836-8.852-.484-9.316-.746-.776 12.027-.582 8.484-.777 12.026-.873 13.796-.714 8.717 10.622.58 13.573.743 13.572.742 6.853.256 13.475.382 13.475.381 16.919.215 10.066-.041 10.425-.14.004.002ZM478.722 169.417l.032-.59-.953-2.063-3.64-.553-1.148-.655-1.248-3.144-.824-4.424 1.08-2.425-.296-1.081-1.279-.425-.822-2.293-8.655.236-13.048.471-13.048.47-13.146.109-12.787.011-8.885.106-1.77-.097.591 2.162-.391 2.819 1.18.065.363 2.031-.786 1.377.165 1.31-.949 2.196-1.048 1.836 1.674 1.866.461 2.392 1.279.425-.129 2.359.755 1.343-.097 1.769.985 1.474.296 1.081 1.345 1.375.232 2.26.886 1.113-.391 2.819.133 1.9 2.165 1.539-.359 2.228 1.049.294-.588 2.098.558.622.068 3.08.328.492.167 3.44-.425 1.278 1.476 1.146-.065 1.179 11.705.285 6.394-.006 6.393-.006 6.295-.366 6.524-.235 16.033-.899 2.984-.428.526 1.211 2.165 1.539 1.574 1.505.721-.197-.265-3.801 2.786-1.149.753-.787.26-2.589 1.769-2.033-.101-2.49-.526-1.212-1.377-.785-.165-1.31.359-2.229.884-1.017 3.933-.494 1.376-1.345 2.163-.592 1.245-1.115.392-2.818 1.375-1.345.686-3.867-.625-1.572-3.313-2.193-.822-2.293-2.854-1.931.262-.459v.002ZM498.76 287.886l-9.638.893.556-1.508 1.67-2.394 1.213-.526.785-1.376-.033-1.54-1.412-2.326-13.18.699-12.228.634-16.127.538-12.098.404-12.196.043 1.781 12.876 1.121 7.634.04 7.93-.282 15.958-.091 8.159 1.575 1.506 1.343-.755 3.181.292.689.393.271 10.194 13.868-.306 10.917-.469 8.426-.367 11.278-.567-.133-1.901.983-.656-.134-1.901-1.246-1.014.654-1.148.097-1.769-1.476-1.146 1.048-1.836-.755-1.343 2.129-2.132-.526-1.211.524-.918-.886-1.113 2.654-.92.295-1.049-1.018-.883 1.245-1.116.557-1.508 3.341-2.657.161-2.949-.296-1.081.458-1.868 1.442-.394-.165-1.311 1.703-.853 1.245-1.116-.755-1.343 1.113-.885.688-1.737 1.049.294.196-1.41-.625-1.572.228-1.999 1.015-1.246.064-1.18 1.574-.624-.657-.983.523-.918-.624-1.572 2.425-1.051.884-1.017-.755-1.343 1.311-.165-.985-1.474.001-.001ZM298.025 157.057l1.462-15.893 1.234-13.894.617-6.948-9.541-.876-10.001-1.138-9.771-1.008-11.411-1.334-14.099-1.954-11.279-1.563-13.969-2.183-10.329-1.629-1.566 9.143-2.545 14.059-1.925 11.372-1.794 11.143-1.533 8.553-3.001 18.057 4.919.979 13.74 2.053 8.689 1.303 10.689 1.531 8.69 1.303 8.591.943 8.69 1.303 8.591.943 8.591.943 14.722 1.396.975-9.176.974-11.306 1.592-16.126-.002.004Z"/><path fill="#1D225F" stroke="#F0EFFC" stroke-linejoin="round" stroke-width="3.18187" d="m201.577 162.904-17.703-3.097-12.297-2.446-10.067-2.089-1.762 8.423-3.527 16.845-2.154 11.241-2.905 14.158-3.527 16.846-2.774 13.929-1.763 8.422 9.018 1.795 13.346 2.741 6.69 1.076 11.247 2.152 11.378 1.924 8.919 1.434 11.509 1.693 1.206-9.044 2.412-15.96 1.564-11.273 2.283-13.599 1.564-11.273 1.694-11.503-8.689-1.303-13.74-2.053-4.919-.979 3.001-18.057-.004-.003ZM63.5192 50.7634l-.8515.4263-1.7382-.6866-.9526-2.0634-1.573.6243-3.2793-.6521-1.1162-1.2444-.1289 2.3591-.4578 1.8679-1.0815.2957.0337 1.5401-1.0479 1.8359.3625 2.0314-1.015 1.2461-.8177 1.9664.4266.851-1.2451 1.1155.0666.9504-.8515 2.5562-2.4876 4.3601-.5235.9184-1.2755 3.8352-5.3008 12.4889-1.0478 1.8358-3.1427 5.5077-.6551 1.1475-1.1802-.0649-2.6512 5.1801-2.1614 2.721-.2277 2 .854 1.701-.4577 1.868-.6551 1.148-.9812 2.786.0017 2.13-.4578 1.868 1.2805 2.553 10.4617 3.53 10.363 3.17 6.7524 2.025 10.363 3.17 6.8865 1.796 10.2643 2.809 7.3459 2.058 10.0351 2.679 9.8048 2.544 12.265 3.037 3.986-16.584 3.56-15.309 2.357-4.131-.296-1.081 1.277-1.705-.854-1.702-2.427-1.079.784-3.507 1.605-1.214 1.932-2.8527 1.344-.7549 1.638-1.8038.588-2.098 1.868-1.6724 1.603-3.344 3.275-3.6069.425-1.2781-.363-2.0313-1.673-1.8662-.919-.5233-.755-1.343.097-1.7693-13.084-3.1999-13.547-3.462-1.344.7549-3.149-.8821-3.18-.2924-.983.6564-3.64-.5536-2.623.3303-1.5731.6243-3.1806-.2923-1.6076-.9159-.7208.1972-3.2126.2974-1.7383-.6867-1.3109.1652-1.3134-1.9648-3.4765-1.3733-2.9185-.7507-2.5239.69-4.1636.364-3.0837-2.0617-1.5089-.5561-.6567-.9824.7823-5.6365-.5598-2.7517-1.9035-1.9968-1.0495-.2941.0118.0076ZM302.459 277.278l.746-9.31-11.082-.842-8.361-.812-10.951-1.072-16.591-1.854-10.821-1.301-8.23-1.042-13.87-1.823-8.1-1.271-1.89 12.912-1.598 9.733-1.467 9.504-1.89 12.912-1.237 9.634-1.599 9.733-1.466 9.504-1.369 9.864-1.89 12.912-1.076 6.685 1.18.065 11.869 1.595 1.272-8.095 16.329 2.312 10.23 1.269-1.116-1.244-.888-3.243 11.181 1.202 17.181 1.886 13.902 1.233 13.902 1.233 1.559-17.662 1.46-18.024 1.429-15.3.909-10.127 1.2-15.435.552-5.768.59.032.001.005Z"/><path fill="#1D225F" stroke="#F0EFFC" stroke-linejoin="round" stroke-width="3.18187" d="m143.09 245.136 1.763-8.423 2.774-13.929 3.526-16.846 2.906-14.157 2.154-11.242 3.526-16.845 1.763-8.423-14.986-3.067-7.378-1.468-17.413-4.146-12.265-3.037-9.8048-2.544-10.035-2.679-7.3459-2.058-2.5459 9.799-3.5625 13.176-1.7653 6.293-3.7918 13.045-2.8426 10.848 7.19 11.397 5.1541 7.5 7.5507 11.298 7.8467 12.379 8.2073 12.281 5.581 8.351 6.96 11.267 3.94 5.894 6.697 9.595.489-2.458 1.114-.886.391-2.818-.528-3.341.818-1.967-.264-1.671.097-1.769.754-.787-.822-2.293.818-1.967 2.753-.559 1.607.916 1.181.065 1.412 2.325 1.541-.034 1.932-2.852 2.906-14.158-.002-.005ZM320.828 214.147l1.361-18.384-7.443-.288-9.902-.778-10.361-1.039-14.723-1.396-8.591-.943-8.591-.943-8.689-1.303-8.591-.943-8.69-1.303-10.689-1.531-1.695 11.503-1.563 11.273-2.283 13.598-1.564 11.273-2.413 15.96-1.205 9.045 8.099 1.271 13.87 1.823 8.231 1.041 10.82 1.302 16.591 1.853 10.952 1.072 8.361.812 11.082.843 13.902 1.233.714-8.716.873-13.796.776-12.026.583-8.485.776-12.026.002-.002Z"/><path fill="#1D225F" stroke="#F0EFFC" stroke-linejoin="round" stroke-width="3.18187" d="m59.6667 300.684.6263 3.702.886 1.113 1.0816-.296-1.3134-1.965-1.2805-2.552v-.002Zm3.0095-7.409.2959 1.081-.097 1.77 2.5906.259-.7554-1.343-2.0341-1.767ZM42.8269 277.4l-2.459-.489.1331 1.901.7874.753 1.8032-.493-.2639-1.671-.0008-.001Zm3.3113.063-1.1136.885.4265.851 1.9676.818 1.3437-.755-2.6242-1.8v.001Zm80.7508 1.928-6.697-9.594-3.939-5.895-6.961-11.266-5.58-8.351-8.2077-12.281-7.8467-12.379-7.5507-11.299-5.1541-7.499-7.19-11.397 2.8426-10.848 3.7918-13.045 1.7653-6.293 3.5625-13.176 2.5459-9.799-10.2644-2.809-6.8865-1.797-10.363-3.169-6.7524-2.026-10.363-3.169-10.4616-3.53-.9813 2.786-.8843 1.017 1.1161 1.244.1003 2.491-.5218 3.047-2.1277 4.262-.8514.426.1003 2.491-3.2413 5.147-.6888-.393-3.4057 3.837.1003 2.49-.5235.919 2.3967 3.799 2.0383 6.027-.0303 2.72-.6205 2.688-1.1464 1.475-.6871 1.737.1366 6.16-.8843 1.017.5918 2.162 1.8065 3.767 1.6759 3.996 1.2148 1.604 1.2164 3.734-.3591 2.229-1.67 2.393 1.4424-.394 1.1161 1.244.9526 2.064.8194.163 1.5427 2.096 1.3437-.755-.6567-.983 1.2435-3.245 1.4423-.394 1.3134 1.964 2.1977.949 1.2451-1.116.7554 1.343-2.6226.331-.886-1.113-2.8847.788.789 2.884-.7536.786.886 1.113.8539 1.702-.3262 1.639-.8843 1.017-.7554-1.343-1.2468-1.014.4553-3.998-1.6717.263-.2276 2-1.3092 2.295.7874.753-.0304 2.72-.7511 2.917 2.3317 4.978 1.1482.655 1.7703.097.886 1.113.3305 2.621-.8178 1.966-1.2451 1.116-.7873-.753-.8515 2.556-.2925 3.179.3945 1.441 1.3455 1.375 1.0832 1.834.3625 2.032 1.0175.884-.2276 1.999 1.1819 2.195.4611 2.392 1.2468 1.014 1.5773 3.636 1.1481.654.4266.851-1.2106 2.655 1.2148 1.604 1.9355 1.407-.0649 1.18-1.5713 2.754.526 1.212-.687 1.737.2958 1.081-1.4078 1.934 1.8049 1.637.1652 1.311 5.1482 1.109 1.7383.687 1.5747 1.505 2.0991.588 1.7703.097 2.1648 1.539 2.1008 2.718.2318 2.26 3.8711 2.815 2.0661 1.178 3.6401.554 1.0833 1.834.2318 2.26-.687 1.738 1.3774.785.983-.656 2.2963 1.308 1.3134 1.965 2.4615 2.619 3.1841 4.552 1.8731 4.717.0034 4.26-.7537.787-.1289 2.359 1.2468 1.014-.0304 2.72 9.2814 1.335 11.2796 1.563 16.591 1.854.851-.427 2.099.589.524-.919 1.245-1.115.228-2-.886-1.113-1.279-.424-.886-1.113.817-1.967-.362-2.031.458-1.868 1.311-.165 1.998-1.903 1.374-3.474.193-3.539 2.097-1.542.655-1.147 2.295-.822 2.196-1.181.163-.819-3.019-3.241.196-1.41-.954-4.193-.689-.392-.822-2.294.359-2.228-.005.001Z"/><path fill="#1D225F" stroke="#F0EFFC" stroke-linejoin="round" stroke-width="3.18187" d="m215.2 257.951-11.509-1.694-8.919-1.434-11.378-1.923-11.248-2.153-6.689-1.076-13.346-2.741-9.018-1.794-2.906 14.158-1.932 2.852-1.541.034-1.412-2.325-1.18-.065-1.608-.916-2.753.56-.817 1.966.821 2.293-.753.787-.097 1.77.264 1.67-.818 1.967.528 3.341-.391 2.819-1.114.885-.49 2.458-.359 2.228.822 2.294.689.392.954 4.194-.196 1.409 3.019 3.241-.163.819-2.196 1.181-2.295.822-.655 1.147-2.097 1.542-.193 3.539-1.375 3.475-1.997 1.902-1.311.165-.458 1.868.362 2.031-.817 1.967.886 1.113 1.279.424.886 1.113-.228 2-1.245 1.115-.524.919-2.099-.588-.851.426-1.769 2.033-.326 1.639 11.912 7.395 11.678 7.264 11.81 7.035 11.94 6.808 6.298 3.894.82.163 16.427 2.673 14.198 2.314 1.077-6.685 1.89-12.912 1.368-9.864 1.467-9.504 1.598-9.733 1.237-9.634 1.89-12.912 1.467-9.504 1.599-9.733 1.89-12.912-.003-.002ZM82.8323 13.7257l-.8194-.1634-1.7686 2.033-.1636.819 1.3134 1.9647-.5235.9184.2318 2.2605.886 1.113 1.3117-.1651.065-1.1796-.886-1.113-1.0816.2958.4232-3.4081-.7874-.7532 1.2451-1.1155.5564-1.5081-.0025.0016Zm-4.0683-3.5352-1.0513-2.424-.7207.19716.2318 2.26054 1.5402-.0337Zm2.6529-3.05-.8194-.16345-1.4744.98408L80.96 9.0084l1.573-.62432-1.1161-1.24358Zm2.7498-4.81928-.8177 1.96647.9206 2.65313 1.2788.42464.0363 3.67004-.983.6564-1.2105 2.6548 1.2148 1.6042-.4232 3.408 1.2805 2.5529-1.9339.7229-1.8006 2.6228-.0649 1.1795-.7857 1.3767-.5538 3.6381.1652 1.3101-2.0966 1.5418-.9188-.5232-.8843 1.017-2.4574 1.6404-.3945-1.4416-1.541.0337-.526-1.2116 1.1464-1.4752 1.2123-.5258-.129 2.3591 1.9659-1.3126 1.4423-.3943 1.7029-2.9835-.6247-1.5721.2277-1.9993 2.3932-.4609.0304-2.7197-.6888-.3926-2.6208 2.4602-.8843 1.0169-2.524.69 2.2921-2.9514 1.2789.4247 1.2451-1.1155.1955-1.4096-.429-2.9817.2942-1.049-2.8519.1989-.9846-1.4736-1.9018.1331-3.7059-1.5039-1.2468-1.0144-3.9359-1.6354-1.772-2.22679-1.8369-1.04727-1.5427-2.09538-1.4424.39431-1.67 2.39363.0338 1.5402-.4232 3.408 1.2805 2.5529.3945 1.4415-.3245 3.7687-.6525 3.2774.5597 2.7517-.784 3.5067 1.7383.6866-.1635.819 1.3454 1.375-2.2618.2317-1.0149 1.2461-.2943 1.0489 2.0662 1.1779-1.3395 5.0148-2.6546.92 1.1819 2.1948 3.082-.0682.7553 1.3429 1.7703.0969 1.3792 2.9152 1.541-.0337 1.0495.294 1.9035 1.9968.5598 2.7518-.7823 5.6365.6567.9824 1.5089.5561 3.0837 2.0616 4.1636-.3639 2.5239-.6901 2.9185.7507 3.4765 1.3734 1.3134 1.9647 1.3109-.1651 1.7383.6867 3.2126-.2974.7208-.1972 1.6076.9158 3.1806.2924 1.5731-.6243 2.6227-.3303 3.64.5536.983-.6564 3.181.2924 3.148.8821 1.344-.7549 13.547 3.462 13.084 3.1999-.592-2.1619 1.015-1.2461-.165-1.3102-.822-2.2934.947-4.3264 3.528-14.7156 2.875-11.4382 1.373-5.6046 2.744-11.209L137.1 17.277l-12.953-3.4291-15.511-4.27922-7.936-2.09032-10.1332-3.03817-6.395-2.12403-.0051.00506Z"/><path fill="#1D225F" stroke="#F0EFFC" stroke-linejoin="round" stroke-width="3.18187" d="m163.263 23.6785-11.575-2.6438-2.744 11.209-1.373 5.6045-2.875 11.4383-3.528 14.7156-.947 4.3264.822 2.2934.165 1.3102-1.015 1.2461.592 2.1619-.097 1.7693.756 1.343.918.5232 1.674 1.8662.362 2.0314-.425 1.2781-3.275 3.6069-1.603 3.344-1.867 1.6724-.589 2.0979-1.638 1.8039-1.343.7549-1.933 2.8527-1.605 1.214-.784 3.507 2.427 1.079.854 1.702-1.277 1.705.296 1.081-2.357 4.131-3.56 15.309-3.986 16.584 17.413 4.146 7.378 1.468 14.986 3.067 10.067 2.089 12.297 2.446 17.703 3.098 1.534-8.554 1.794-11.142 1.924-11.372 2.546-14.059-1.772-2.227-.92-2.653-1.771-.097-1.015 1.246-.326 1.639-2.328-.719-1.443.394-.787-.753-2.951-.161-1.738-.687-1.311.166-.655 1.147-4.066-1.405-2.196 1.181-1.411-.195-.656-.983.195-1.409-.625-1.573.623-.557-1.249-3.145-2-.227-.886-1.113-.625-1.572 1.015-1.246-.69-2.523-1.938-3.5369-.001-2.1299.062-3.3095-1.772-2.2268-2.457 1.6404-3.016 1.0187-1.214-1.6042-1.149-.6547 1.179-2.065-.493-1.8022.983-.6563 1.573-.6244.097-1.7693-.625-1.5721.949-2.1965-.033-1.5402 1.014-1.2461 1.473-3.114.818-1.9664-.427-.851-2.721-.0303-.394-1.4416-2.921-2.8806-.033-1.5402-3.349-5.8623-.395-1.4416-1.936-1.407-.624-1.5722-1.476-1.1458 1.343-.7549-.984-1.4736.983-.6564-.133-1.9007-1.084-1.8342.065-1.1795-1.708-3.4039 3.821-17.8945-.001-.0068ZM391.539 51.3002l-9.934-.1879-8.033-.321-13.475-.3817-10.623-.5805-8.489-.5822-7.672-.4195-10.722-.9412-14.263-1.134-1.753 19.0724-.976 9.176-1.429 15.3004-1.169 12.714 6.591.715 14.852 1.167 9.083.615 11.802.645 5.901.323 12.033.776 11.934.416 12.065.186 12.065.186-.068-3.08-.495-3.932-1.542-2.095-.43-2.9818-.426-.8509-.003-4.2599-.462-2.3919-.068-3.0803-.133-1.9008.226-4.1292-.757-3.4729-.921-2.6532-1.776-6.4866.258-4.719-.362-2.0314.719-2.3271-1.579-5.7654.032-.5898-.001.0034Z"/><path fill="#1D225F" stroke="#F0EFFC" stroke-linejoin="round" stroke-width="3.18187" d="m308.326 46.753-9.771-1.0076-8.131-.6808-13.411-1.5612-7.869-1.14-10.821-1.3017-10.46-1.4003-11.739-1.8249-9.607-1.8266-10.559-1.76-15.707-2.8697-13.116-2.6102-13.346-2.7407-10.527-2.3499-3.82 17.8946 1.708 3.4038-.065 1.1796 1.083 1.8342.133 1.9007-.983.6563.985 1.4736-1.344.7549 1.476 1.1459.625 1.5722 1.935 1.407.395 1.4416 3.349 5.8623.034 1.5401 2.92 2.8807.394 1.4415 2.722.0304.426.8509-.817 1.9665-1.473 3.114-1.015 1.2461.034 1.5402-.95 2.1964.625 1.5722-.097 1.7693-1.573.6243-.983.6564.493 1.8021-1.178 2.0651 1.148.6546 1.215 1.6042 3.015-1.0186 2.457-1.6404 1.772 2.2268-.062 3.3095.002 2.1299 1.937 3.5367.69 2.523-1.015 1.246.625 1.572.886 1.113 2 .228 1.249 3.144-.622.558.624 1.572-.195 1.409.657.983 1.41.195 2.196-1.181 4.067 1.405.655-1.147 1.31-.165 1.739.686 2.95.161.788.753 1.442-.394 2.328.719.327-1.639 1.015-1.246 1.77.097.92 2.653 1.772 2.227 1.566-9.143 10.329 1.629 13.969 2.183 11.279 1.563 14.099 1.954 11.411 1.334 9.771 1.007 10.001 1.139 9.541.876.229.13 1.427-17.433 1.17-12.7142 1.428-15.3003.976-9.1761 1.753-19.0724h.004ZM486.301 67.5972l-2.951-.161-.983.6564-.919-.5232-1.444-1.7357-1.18-.0648-4.426.8231-3.311-.0623-.592-2.162-1.18-.0648-1.835 1.0826-2.359 2.001-1.934.7229-1.77-.0969-1.608-.9158-.854-1.7019-2.459-.4895-.952-2.0634-1.411-.1955-1.933.7229.165 1.311-1.082.2957-2.036-3.8975-2.131.0017.687-1.7373-2.918-.7507-1.148-.6547-3.312-.0623-2.524.69-.523.9184-3.114.658-1.543-2.0954-4.361-.3564-1.116-1.2444-2.032.3623-1.279-.4246-1.575-1.5056-.133-1.9008-1.283-4.6845-.1-2.4905-1.837-1.0473-2.23-.3589.105 6.7487-.263.4592-8.163-.091-16.919-.2149-.032.5898 1.579 5.7655-.719 2.327.362 2.0314-.258 4.719 1.776 6.4867.921 2.6531.757 3.4729-.226 4.1293.133 1.9007.068 3.0803.462 2.392.003 4.2598.426.851.43 2.9817 1.542 2.0953.495 3.931.068 3.081-1.243 3.245-2.72 2.1-.163.819 2.167 3.668 1.64.326 1.444 1.736-.12 13.008.04 7.93-.317 12.289 8.885-.107 12.787-.01 13.146-.11 13.048-.47 13.048-.47 8.655-.237-.2-4.98-.789-2.883-1.805-1.637-1.608-.916-1.541.033-2.493-2.029-1.511-2.686-2.034-1.768-2.459-.489-1.674-1.867-2.459-.489-3.051-2.652.521-3.047-.559-2.752.622-.557-.264-1.671.228-2 .981-2.786-1.314-1.965-1.639-.326-.101-2.49 1.246-1.116.981-2.786 4.257-2.133.884-1.017-.238-10.7804 1.081-.2957 1.048-1.8359.032-.5897 3.703-2.756 3.505-3.4762 5.96-7.2467 2.85-2.3287 2.949-1.969 5.441-2.0693 6.127-3.8066.005-.0016ZM751.373 143.257l-.851.426-1.309 2.295 3.736-1.216-1.575-1.505h-.001Zm-9.922-24.207-1.442.394-4.159 4.624-15.343 3.421-10.555 2.5-.219 12.647.689.392 9.473-2.204 12.721-3.091.098.361 5.54-1.709.362 2.031 1.084 1.834 1.836 1.048.689.392 1.18.065.691 2.523.951-.067 1.605-1.214-.296-1.081 1.605-1.214 1.277-1.705.986 3.603 1.737-1.443.786-1.377 2.425-1.05 3.047-1.609.591.032-.888-3.243-1.179 2.065-2.457 1.641-2.36-.129-1.509-.556-1.052-2.424-1.31.165-.462-2.392-2.592-2.389-2.622.33-1.05-.294.228-1.999 1.408-1.935-.427-.851 2.228-1.771-.395-1.441-1.113.885-1.018-.884-.789-2.883v.002Z"/><path fill="#1D225F" d="m1.96843 488.223.00084-.479-.18546.071.17703.408h.00759Zm4.97623-.248.26302-.289-.21834-.151-.04468.44Zm3.77834.873.2225-.107-.0733-.038-.1501.145h.0009Zm-3.10225-1.671-.03035-.406-.22087-.003.25122.409Zm6.53575 1.177-.1121.071.0363.037.075-.109.0008.001Zm-5.10012-1.337.1197-.551-.11128.035-.00084.515-.00758.001Zm8.09782-1.963-1.6944.267-3.5499 3.032 1.3269-.089 4.156-1.844-.2352-1.366h-.0034Zm8.2564-.413.0404-.22-.1458-.076.1054.296Zm-2.454-.814-1.8849.41.1829 2.285-1.7062.744 4.7309-.988.5117-1.942-1.4829.563-.3498-1.073-.0017.001Zm6.0974.948-.6601-.195.4359.376.2242-.181Zm1.3252.023-1.0638-.238-.1501.145 1.2139.093Zm-3.6232-1.349-1.0698.093 1.7973.435-.7275-.528Zm4.4772.922-.1079-.149-.4072.104.5151.045Zm-2.8898-1.19-.4021-.19.0177 1.142.3844-.952Zm12.296 2.452-.0725-.075-.1476-.002.2201.077Zm.2596-.106.0017-.11-.1812-.15.1795.26Zm-1.6464-.653.2142.409-.0346-.112-.1796-.297Zm.8835.015-.8793-.272 1.0546.79-.1753-.518Zm1.3075-1.082-.075.072-.0001.073.0751-.145Zm11.4252 1.701-.0658-.479-.1484.071.2142.408Zm104.8942 5.957-.143-.26.034.184.109.076Zm-117.9017-9.891-.0363-.037-.0371.036.0734.001Zm120.9457 8.653.286.484.184.003-.47-.487Zm-106.7075-5.764-.0758.146-.0422.33.1189-.477-.0009.001Zm-11.9731-1.967.2732-.916-.1467-.04-.1265.956Zm124.6626 6.728-.925.316.654.527.272-.842-.001-.001Zm-122.8501-7.287-.1062-.26.0691.259.0371.001Zm-7.2532-2.293-2.4776.583-2.341 1.249.1172 1.806 2.4481-1.027 3.0575-2.267-.8042-.344Zm17.2773 4.081-.5614.542.5175-.102.0439-.44Zm112.979 4.987-.103-.443-.15.144.253.3v-.001Zm-122.1761-7.828-.698-.122.6516.673.0464-.551Zm115.6591 7.608-.296.105.059.885.237-.99ZM46.3507 480.8l-.3692.067.3633.301.0059-.368Zm7.0331 2.252-.2579-.005-.1813-.187.4384.192h.0008Zm-7.8786-2.34-.4376-.266.1425.297.2951-.031Zm6.4599 1.286-.8152.281-.7284 1.681 1.5436-1.962Zm106.4119 5.65-.196.733.522-.433-.326-.3Zm-109.3034-6.876.4965 1.149.2074-1.395-.7039.246Zm-8.4722-2.241.7773-.244-.0734-.038-.7039.282Zm-.9467-.642-.1441-.186-.0379.074.182.112Zm118.8373 9.06-.144-.186-.152.291.296-.105Zm-107.423-6.774-.2563-.114-.2251.253.4814-.139Zm106.395 6.757.193-.512-.182-.114-.01.625-.001.001Zm-.687-.747-.374.361.474.266-.1-.628v.001ZM55.2207 478.74l-.2537-.262-.0001.074.2538.188Zm101.6233 5.532.73.454.41-.325-1.14-.129Zm1.261-.495-.299.216.398.411-.1-.628.001.001Zm-2.287.183-.102-.517-.298.215.4.301v.001Zm10.338-1.556-2.05 3.646 2.376 1.107 1.046-.902-.162-1.328-1.21-2.523Zm-116.8565-6.749-.1096-.039-.0742.036.1838.003Zm108.0975 6.082-1.08.755.017 1.178 1.063-1.933Zm-91.895-3.86.0076-.479-.1139.219.1063.26Zm95.436 3.293-.345.804 1.703-.56-1.359-.244h.001Zm-4.407-.736 1.206 4.915.767.381 2.605 2.804 1.796 2.717.989.275-1.033-2.079.253-1.91-.421-1.258-2.59-3.614-1.843-2.092-1.728-.139h-.001Zm-94.9051-4.426-.0675-.333-.1854.071.2529.262Zm98.5301 3.493-.762 1.459.854-.353-.092-1.106Zm-95.234-4.799-.5513-.082-.5564.248 1.1077-.165v-.001Zm10.0292 1.457-.4536.692.2318-.622.2218-.07Zm1.4693.209-.8843.022.3954.595.4889-.617Zm-59.5411-13.882.9492.495-.1433-.223-.8059-.272Zm39.0899 9.895.0759-.11-.1121.072.0362.038Zm.2968-.105.1483-.072.0001-.037-.1492.108.0008.001Zm102.7029 4.777.075 2.099 1.113-.46-1.188-1.639Zm-99.9632-5.949.1121-.071h-.0371l-.075.071Zm95.6552 5.838-1.624.23 1.154 1.455.055 3.24 1.192-.827-.11-2.173-.668-1.925h.001Zm.726-1.571-.247 1.542 1.874 2.424.113-2.354 1.714.949-.627-2.109-.706.392-2.122-.842.001-.002Zm-7.023-.67-.952 1.861 1.087-1.123-.135-.738Zm-79.5372-4.904-.0708-.148.0354.147h.037l-.0016.001Zm9.4154.746-.1787-.334.1029.443.0758-.109Zm70.6268 2.657.442 4.388 2.188 3.459.229-4.891-1.499-2.86-1.36-.096Zm-64.8345-5.578-.3347.215.5471.304-.2124-.519Zm-1.2898.053.1526-.329-.3684-.007.215.335.0008.001Zm-.956-.09-.3051.621-2.5653-.779-.3279 4.191-1.0243-2.631-1.89.705-.9037 1.162.7646 2.737 1.1743.24 1.3092-1.193-1.5873 2.439.5091.377 1.7164-1.333-.5412-.672 1.5629-.967 1.6944-.119 2.5206-.951.8683-1.274-1.246-.352.6424-.983-2.3731-1.218h.0017Zm63.3173 1.798-.653-.563-.012.663.665-.1Zm-63.8821-3.095.0658.479.6558.416-.7216-.895Zm66.1161 1.403-2.148.701.597 1.739-.565.727 2.134 2.318-.002-2.098 2.841 1.888-3.217-3.55 2.518 1.33.186-2.279-2.344-.775v-.001Zm-1.285-.205-.218-.224-.112.108.33.117v-.001Zm6.305-.447-.73-.454-.267.585.997-.131Zm-4.417-.147-.659-.196-.003.148.662.048Zm2.365-.439 2.124 7.287.575-3.524 1.471.134-1.318-2.635-1.918.152-.934-1.414Zm-66.5062-2.514-2.5703 1.724.972 1.341 3.1418-.683.2496-1.685-1.7931-.693v-.004Zm-27.0856-5.497-.0716-.112-.0026.147.0742-.035Zm-1.0596-.496-.0649-.517-.0397.147.1046.37Zm30.7771 2.835-.2226.107-.0017.11.2243-.217Zm-.9543-.2-.1088-.112-.2638.364.3726-.251v-.001Zm2.4438-.768-.2554-.152-.0017.111.2571.041Zm.811-.023-.2554-.151-.038.073.2934.078Zm-1.2822-.389-.3667-.08-.0388.109.4055-.029Zm20.221-.139.152-.255-.224.18.072.075Zm6.6-2.65 1.385-1.339-.481.176-.904 1.163Zm-12.346-1.716.448-.324.19-.402-.638.726Zm.205-1.212-.484.324.739-.135-.255-.189Zm-16.6577-1.494-.0657-.479-.1838-.002.2495.481Zm16.1767 1.413-.41.324-.302.436.712-.76Zm11.343.005.073.075.111-.034-.184-.04v-.001Zm.551.047-.256-.079.036.075.22.004Zm-1.285-.206.109.112.001-.11-.11-.002Zm-8.354-.36.413-.472-.487.47.074.002Zm1.376-.861-2.939 3.963 3.595-3.547-.656-.416Zm-3.28.129-.177-.445-.224.218.401.227Zm7.809-.053-.146-.076.073.075.073.001Zm2.642.56.121-.661-.298.216.177.445Zm-74.6225-12.405-4.9341-.046 1.9372 3.051 1.4264.612 2.5003.226-.9298-3.843Zm69.5645 11.105.134.775.528-.764-.662-.011Zm-4.116-.548-.554 2.273.724-1.423-.171-.851.001.001Zm-88.717-19.855.0801-.367.0017-.073-.0809.441-.0009-.001Zm87.933 18.149.032.332.22.003-.252-.335Zm-.633.431-.135-.738-.261.217.396.521Zm4.985-.763.007-.404-.297.179.291.226-.001-.001Zm-4.584-1.144-.053.992.379-.656-.325-.337-.001.001Zm-7.6632-2.117.1163-.329-.0741-.002-.0422.33v.001Zm-53.3956-15.655.2318-.622-.1121.072-.1197.55Zm.4223-1.023-.2183-.151-.0017.11.22.041Zm4.5758-2.758.0026-.148-.0363-.037.0337.185Zm.0447-.478-.07-.222-.0371.036.1071.186Zm1.9263-2.875.0379-.074-.1846.034.1467.04Zm.6238.157-.4755-.192.0346.111.4409.081Zm-.655-.452.0025-.184-.1501.181.1476.003Zm-16.9696-4.665-.102-.518-.1425-.296.2445.814Zm1.6548-2.07.0354.074.1458.076-.1812-.15Zm-2.9766-.381-.7933-1.007.6508.747.1433.261-.0008-.001Zm-1.7392-1.685-.1112.034.2933.079-.1821-.114v.001Zm.0599-1.361h-.0363l.2192.114-.1821-.114h-.0008Zm28.1857 8.055-1.1802.091.6929.38.4865-.47.0008-.001Zm-29.4064-9.915-1.2881 2.15.532 1.223 2.6487.191 2.4834 3.429 3.6814.098-.499-.965-3.2405-2.226-.7402-1.963-1.7753.449-1.8024-2.386Zm18.7736.498.0397-.183-.0742.035.0354.148h-.0009Zm-5.5098-11.795-.1458-.113.0708.148.0742-.035h.0008Zm3.2236 1.048.3347-.178-.1104-.002-.2243.18Zm2.2593-.735.2967-.105 1.0015-.425-1.2982.53Zm3.9267-1.37.1871-.181-.2605.144.0734.037Zm.5547-.138.5951-.358-.5555.175-.0396.183Zm1.5949-.672-.5538.101.0354.074.5184-.175Zm74.2623-16.203-.361-.447-.764-.528 1.125.975Zm-60.6015-7.608 1.0926-1.454-.5986.542-.494.911v.001Zm1.4652-1.705.5268-.654-.2605.143-.2663.511Zm.789-.944.7115-.724-.4468.287-.2647.437Zm36.8623 2.348.579.599.258.005-.837-.604Zm-18.511-9.586-3.5541 3.29-1.4474.675-2.8317-.268-.0986-.701-2.8974 1.461.2158 2.507-.7713-.123.8792-1.937-4.3414 1.916-1.3488-.833-4.0026 3.687-1.6422 3.47-3.2759 2.08-2.6133-.081-2.8586-.858-2.7886 3.781 2.3848 2.728 3.2717 4.766.1914 3.941 5.96 2.309-1.1069 2.337 1.0057 1.526 1.004-.572 2.6302 1.259-2.438.437-2.5189-1.331 1.0277 2.41-2.0106 1.292-6.6555-2.835 1.7611-1.775-1.2291-1.382-5.0243.91-7.5213 2.67.5792 2.734 3.5692 2.379-2.0687.37.2167 2.469 2.5264 3.061 1.1651.793 2.475-.437 3.1773 1.599 1.3201.317-.0919 1.065 1.3109-1.303 2.2213-.699.4915-.765 1.2426.573.8261-.943.8059 2.442-.9711.83-.9863-.458-.7528.981 1.1034.056.4106 4.056-.6525 1.572-4.8607-.045.0295.443-2.5754 2.055-3.243.129-.2259-1.881-1.4728-.024-.0219 1.288-1.4735.012-.8051 4.072-.6837-.932-3.7707 3.029.2748 1.182-1.3598-.17-.0935 5.556 1.9018.805-.8177.465 1.9271 1.467 3.4782 1.2-1.0555 1.454-.0497-1.399-1.4769.233-1.2544-2.082-3.2 1.933 1.5393.431-.6078 1.094 3.1165 5.205 2.905.27 2.0333-.444 1.0631-1.897.8.603-.0877 3.017.4746 2.437-1.5132 2.368.4687 2.769-1.997.481 1.5671.984 5.7847-2.37 1.6227 2.052 1.1372.276 1.0159 3.109 1.2173-.127-.2201-2.249 2.5872 1.664 4.2925-1.217 1.4281-1.706-1.7071 2.953-1.8293 1.479.3026 1.701-1.1566.864-.9441 3.592-2.7119 1.39-1.7973 1.773-3.5347 2.15-1.144.128-3.3517 2.226.1348 2.947-3.9772-2.202-3.7362 1.006-3.7691 2.918-1.5224.747-.5741 1.279 3.3551-.201.5851-1.941.3785 1.589 3.5482-2.959 1.0655.165-.7958 1.349 3.845-.892.3911.853 2.4236-1.799 2.6108.227 4.6997-3.529 4.4089-1.545 4.0481-1.993 1.7029-2.622 2.0088-1.181.6913.526 3.3543-2.373.6972.159 4.1526-3.869.3237-1.725-2.1547-1.103.6272-2.235 2.3924-2.131 2.6276-2.974-.5083-.414 2.11-.627 3.3889-4.287 3.3062-1.711 2.4962.484-.3785.619 1.487 1.35-1.5536.415-1.1238-1.086-3.9376 2.032.1846 2.175-1.7745 2.583-.7385 2.307 1.2586 1.788-.7722-.05-.5909 2.272 2.1741-.074 5.8833-3.839 1.1616-1.196 3.2379.165 1.121-.974 1.111-2.521-1.686-.323.86-.832-.307-1.404.653-1.608 1.707 1.427.236-.916 2.719.34 2.094 2.536 1.034-.204.669 1.815 1.606.874 1.78-.706-.57 1.058 3.204 2.189 4.501-.477 3.848 1.132 1.311-1.304 1.867 2.903 3.729-.6.744 1.779-.741.208 2.337 1.218 4.948 3.653 1.296 1.752 1.855 1.392 2.121.883 1.831-1.589-3.302-2.926 2.978.27.904 3.218 1.184-.348 2.088.734-1.817-5.882.511.266-.397-2.657 1.148 3.995 1.21 2.523 2.468 2.14.598-.506 1.208 2.634 2.537.116.078 1.952-1.096-.533.248 2.728 1.158 1.27 5.113 4.687-.062 3.717.771 2.332.415-2.753 2.229-1.141 1.4 2.158.632 6.195 1.366-.161 1.826-3.466-.613-5.163-.285-.557-5.918-2.713-1.214-.095-1.406-1.79-.345-1.331-4.198-6.659-3.345-4.768-1.787-1.06-3.145-3.513-.558-1.849-.945-.753-3.542 2.591-1.292 2.334-2.304 1.212-.559-1.739-3.77-3.634-.424-1.037-1.782-1.392-3.009-.603-1.497-.761-2.097-.182-.199-71.523-1.215-.057-3.994-3.417-.988-.385-5.794.786-1.449-1.46-3.568-.207-1.792-.766-4.413-2.536-4.8655.249-2.0915-.476.7141-.872-2.1345-.109.3043-2.792-3.5996-.576-2.067.26-.1467-2.248-.8017-.492-2.7718 2.751 1.439-2.369-1.8613-3.196.0042-.007Z"/><path stroke="#F0EFFC" stroke-linejoin="round" stroke-width="3.18187" d="m110.249 452.533-.037-.001m-81.8223-39.91-.0362-.037m24.1224-15.274-.0733-.001M1.96843 488.223l.00084-.478-.18546.07.17703.408h.00759Zm4.97623-.248.26302-.289-.21834-.151-.04468.44Zm3.77834.873.2225-.107-.0733-.038-.1501.145h.0009Zm-3.10225-1.671-.03035-.406-.22087-.003.25122.409Zm6.53575 1.177-.1121.071.0363.037.075-.109.0008.001Zm-5.10012-1.337.1197-.551-.11128.035-.00084.515-.00758.001Zm8.09782-1.963-1.6944.267-3.5499 3.032 1.3269-.089 4.156-1.844-.2352-1.366h-.0034Zm8.2564-.413.0404-.22-.1458-.076.1054.296Zm-2.454-.814-1.8849.41.1829 2.285-1.7062.744 4.7309-.988.5117-1.942-1.4829.563-.3498-1.073-.0017.001Zm6.0974.948-.6601-.195.4359.376.2242-.181Zm1.3252.023-1.0638-.238-.1501.145 1.2139.093Zm-3.6232-1.349-1.0698.093 1.7973.435-.7275-.528Zm4.4772.922-.1079-.149-.4072.104.5151.045Zm-2.8898-1.19-.4021-.19.0177 1.142.3844-.952Zm12.296 2.452-.0725-.075-.1476-.002.2201.077Zm.2596-.106.0017-.11-.1812-.15.1795.26Zm-1.6464-.653.2142.409-.0346-.112-.1796-.297Zm.8835.015-.8793-.272 1.0546.79-.1753-.518Zm1.3075-1.082-.075.072-.0001.073.0751-.145Zm11.4252 1.701-.0658-.479-.1484.071.2142.408Zm104.8942 5.957-.143-.26.034.184.109.076Zm-117.9017-9.891-.0363-.037-.0371.036.0734.001Zm120.9447 8.653.287.484.184.003-.471-.487Zm-106.7065-5.764-.0758.146-.0422.33.1189-.477-.0009.001Zm-11.9731-1.967.2732-.916-.1467-.04-.1265.956Zm124.6626 6.728-.925.316.654.527.272-.842-.001-.001Zm-122.8501-7.287-.1062-.26.0691.259.0371.001Zm-7.2532-2.293-2.4776.583-2.341 1.249.1172 1.806 2.4481-1.027 3.0575-2.267-.8042-.344Zm17.2773 4.081-.5615.542.5176-.102.0439-.44Zm112.979 4.987-.103-.443-.15.144.253.3v-.001Zm-122.1761-7.828-.698-.122.6516.673.0464-.551Zm115.6591 7.608-.296.105.059.885.237-.99ZM46.3507 480.8l-.3692.067.3633.301.0059-.368Zm7.0331 2.252-.2579-.005-.1813-.187.4384.192h.0008Zm-7.8786-2.34-.4376-.266.1425.297.2951-.031Zm6.4599 1.286-.8152.281-.7284 1.681 1.5436-1.962Zm106.4119 5.65-.196.733.522-.433-.326-.3Zm-109.3034-6.876.4965 1.149.2074-1.395-.7039.246Zm-8.4722-2.241.7773-.244-.0734-.038-.7039.282Zm-.9467-.642-.1441-.186-.0379.074.182.112Zm118.8373 9.06-.144-.186-.152.291.296-.105Zm-107.423-6.774-.2563-.114-.2251.253.4814-.139Zm106.395 6.757.193-.512-.182-.114-.01.625-.001.001Zm-.687-.747-.374.361.474.266-.1-.628v.001ZM55.2207 478.74l-.2537-.262-.0001.074.2538.188Zm101.6233 5.532.73.454.41-.325-1.14-.129Zm1.261-.495-.299.216.398.411-.1-.628.001.001Zm-2.287.183-.102-.517-.298.215.4.301v.001Zm10.338-1.556-2.05 3.646 2.376 1.107 1.046-.902-.162-1.328-1.21-2.523Zm-116.8565-6.749-.1096-.039-.0742.036.1838.003Zm108.0975 6.082-1.08.755.017 1.178 1.063-1.933Zm-91.895-3.86.0076-.479-.1139.219.1063.26Zm95.436 3.293-.345.804 1.703-.56-1.359-.244h.001Zm-4.407-.736 1.206 4.915.767.381 2.605 2.804 1.796 2.717.989.275-1.033-2.079.253-1.91-.421-1.258-2.59-3.614-1.843-2.092-1.728-.139h-.001Zm-94.9051-4.426-.0675-.333-.1854.071.2529.262Zm98.5301 3.493-.762 1.459.854-.353-.092-1.106Zm-95.234-4.799-.5513-.082-.5564.248 1.1077-.165v-.001Zm10.0292 1.457-.4536.692.2318-.622.2218-.07Zm1.4693.209-.8843.022.3954.595.4889-.617Zm-59.5411-13.882.9492.495-.1433-.223-.8059-.272Zm39.0899 9.895.0759-.11-.1121.072.0362.038Zm.2968-.105.1483-.072.0001-.037-.1492.108.0008.001Zm102.7029 4.777.075 2.099 1.113-.46-1.188-1.639Zm-99.9632-5.949.1121-.071h-.0371l-.075.071Zm95.6552 5.838-1.624.23 1.154 1.455.055 3.24 1.192-.827-.11-2.173-.668-1.925h.001Zm.726-1.571-.247 1.542 1.874 2.424.113-2.354 1.714.949-.627-2.109-.706.392-2.122-.842.001-.002Zm-7.023-.67-.952 1.861 1.087-1.123-.135-.738Zm-79.5372-4.904-.0709-.148.0355.147h.037l-.0016.001Zm9.4154.746-.1787-.334.1029.443.0758-.109Zm70.6268 2.657.442 4.388 2.188 3.459.229-4.891-1.499-2.86-1.36-.096Zm-64.8345-5.578-.3347.215.5471.304-.2124-.519Zm-1.2898.053.1526-.329-.3684-.007.2149.335.0009.001Zm-.956-.09-.3051.621-2.5653-.779-.3279 4.191-1.0243-2.631-1.89.705-.9037 1.162.7646 2.737 1.1743.24 1.3092-1.193-1.5873 2.439.5091.377 1.7164-1.333-.5412-.672 1.5629-.967 1.6944-.119 2.5206-.951.8683-1.274-1.246-.352.6424-.983-2.3731-1.218h.0017Zm63.3173 1.798-.653-.563-.012.663.665-.1Zm-63.8821-3.095.0658.479.6558.416-.7216-.895Zm66.1161 1.403-2.148.701.597 1.739-.565.727 2.134 2.318-.002-2.098 2.841 1.889-3.217-3.551 2.518 1.33.186-2.279-2.344-.775v-.001Zm-1.285-.205-.218-.224-.112.108.33.117v-.001Zm6.305-.447-.73-.454-.267.585.997-.131Zm-4.417-.147-.659-.196-.003.148.662.048Zm2.365-.439 2.124 7.287.575-3.524 1.471.134-1.318-2.635-1.918.152-.934-1.414Zm-66.5062-2.514-2.5703 1.724.972 1.341 3.1418-.683.2496-1.685-1.7931-.693v-.004Zm-27.0856-5.497-.0716-.112-.0026.147.0742-.035Zm-1.0596-.496-.0649-.517-.0397.147.1046.37Zm30.7771 2.835-.2226.107-.0017.11.2243-.217Zm-.9543-.2-.1088-.112-.2638.364.3726-.251v-.001Zm2.4438-.768-.2554-.152-.0017.111.2571.041Zm.811-.023-.2554-.151-.038.073.2934.078Zm-1.2822-.389-.3667-.08-.0388.109.4055-.029Zm20.221-.139.152-.255-.224.18.072.075Zm6.6-2.65 1.385-1.339-.481.176-.904 1.163Zm-12.346-1.716.448-.324.19-.402-.638.726Zm.205-1.212-.484.324.739-.135-.255-.189Zm-16.6577-1.494-.0657-.479-.1838-.002.2495.481Zm16.1767 1.413-.41.324-.302.436.712-.76Zm11.343.005.073.075.111-.034-.184-.04v-.001Zm.551.047-.256-.079.036.075.22.004Zm-1.285-.206.109.112.001-.11-.11-.002Zm-8.354-.36.413-.472-.487.47.074.002Zm1.376-.861-2.939 3.963 3.595-3.547-.656-.416Zm-3.28.129-.177-.445-.224.218.401.227Zm7.809-.053-.146-.076.073.075.073.001Zm2.642.56.121-.661-.298.216.177.445Zm-74.6225-12.405-4.9341-.046 1.9372 3.051 1.4264.612 2.5003.226-.9298-3.843Zm69.5645 11.105.134.775.528-.764-.662-.011Zm-4.116-.548-.554 2.273.724-1.423-.171-.851.001.001Zm-88.717-19.855.0801-.367.0017-.073-.0809.441-.0009-.001Zm87.933 18.149.032.332.22.003-.252-.335Zm-.633.431-.135-.738-.261.217.396.521Zm4.985-.763.007-.404-.297.179.291.226-.001-.001Zm-4.584-1.144-.053.992.379-.656-.325-.337-.001.001Zm-7.6632-2.117.1163-.329-.0742-.002-.0421.33v.001Zm-53.3956-15.655.2318-.622-.1121.072-.1197.55Zm.4223-1.023-.2183-.151-.0017.11.22.041Zm4.5758-2.758.0026-.148-.0363-.037.0337.185Zm.0447-.478-.07-.222-.0371.036.1071.186Zm1.9263-2.875.0379-.074-.1846.034.1467.04Zm.6238.157-.4755-.192.0346.111.4409.081Zm-.655-.452.0025-.184-.1501.181.1476.003Zm-16.9696-4.665-.102-.518-.1425-.296.2445.814Zm1.6548-2.07.0354.074.1458.076-.1812-.15Zm-2.9766-.381-.7933-1.007.6508.747.1433.261-.0008-.001Zm-1.7392-1.685-.1112.034.2933.079-.1821-.114v.001Zm.0599-1.361h-.0363l.2192.114-.1821-.114h-.0008Zm28.1857 8.055-1.1802.091.6929.38.4865-.47.0008-.001Zm-29.4064-9.915-1.2881 2.15.532 1.223 2.6487.191 2.4834 3.429 3.6814.098-.499-.965-3.2405-2.226-.7402-1.963-1.7753.449-1.8024-2.386Zm18.7736.498.0397-.183-.0742.035.0354.148h-.0009Zm-5.5098-11.795-.1458-.113.0708.148.0742-.035h.0008Zm3.2236 1.048.3347-.178-.1104-.002-.2243.18Zm2.2593-.735.2967-.105 1.0015-.425-1.2982.53Zm3.9267-1.37.1871-.181-.2605.144.0734.037Zm.5547-.138.5951-.358-.5555.175-.0396.183Zm1.5949-.672-.5538.101.0354.074.5184-.175Zm74.2623-16.203-.361-.447-.764-.528 1.125.975Zm-60.6015-7.608 1.0926-1.454-.5986.542-.494.911v.001Zm1.4652-1.705.5268-.654-.2605.143-.2663.511Zm.789-.944.7115-.724-.4468.287-.2647.437Zm36.8623 2.348.579.599.258.005-.837-.604Zm-18.511-9.586-3.5541 3.29-1.4474.675-2.8317-.268-.0986-.701-2.8974 1.461.2158 2.507-.7713-.123.8792-1.937-4.3414 1.916-1.3488-.833-4.0026 3.687-1.6422 3.47-3.2759 2.08-2.6133-.081-2.8586-.858-2.7886 3.781 2.3848 2.728 3.2717 4.766.1914 3.941 5.96 2.309-1.1069 2.337 1.0057 1.526 1.004-.572 2.6302 1.259-2.438.437-2.5189-1.331 1.0277 2.41-2.0106 1.292-6.6555-2.835 1.7611-1.775-1.2291-1.382-5.0243.91-7.5213 2.67.5792 2.734 3.5692 2.379-2.0687.37.2167 2.469 2.5264 3.061 1.1651.793 2.475-.437 3.1773 1.599 1.3201.317-.0919 1.065 1.3109-1.303 2.2213-.699.4915-.765 1.2426.573.8261-.943.8059 2.442-.9711.83-.9863-.458-.7528.981 1.1034.056.4106 4.056-.6525 1.572-4.8607-.045.0295.443-2.5754 2.055-3.243.129-.2259-1.881-1.4728-.024-.0219 1.288-1.4735.012-.8051 4.072-.6837-.932-3.7707 3.029.2748 1.182-1.3598-.17-.0935 5.556 1.9018.805-.8177.465 1.9271 1.467 3.4782 1.2-1.0555 1.454-.0497-1.399-1.4769.233-1.2544-2.082-3.2 1.933 1.5393.431-.6078 1.094 3.1165 5.205 2.905.27 2.0333-.444 1.0631-1.897.8.603-.0877 3.017.4746 2.437-1.5132 2.368.4687 2.769-1.997.481 1.5671.984 5.7847-2.37 1.6227 2.052 1.1372.276 1.0159 3.109 1.2173-.127-.2201-2.249 2.5872 1.664 4.2925-1.217 1.4281-1.706-1.7071 2.953-1.8293 1.479.3026 1.701-1.1566.864-.9441 3.592-2.7119 1.39-1.7973 1.773-3.5347 2.15-1.144.128-3.3517 2.226.1348 2.947-3.9772-2.202-3.7362 1.006-3.7691 2.918-1.5224.747-.5741 1.279 3.3551-.201.5851-1.941.3785 1.589 3.5482-2.959 1.0655.165-.7958 1.349 3.845-.892.3911.853 2.4236-1.799 2.6108.227 4.6997-3.529 4.4089-1.545 4.0481-1.993 1.7029-2.622 2.0088-1.181.6913.526 3.3543-2.373.6972.159 4.1526-3.869.3237-1.725-2.1547-1.103.6272-2.235 2.3924-2.131 2.6276-2.974-.5083-.414 2.11-.627 3.3889-4.287 3.3062-1.711 2.4962.484-.3785.619 1.487 1.35-1.5536.415-1.1238-1.086-3.9376 2.032.1846 2.175-1.7745 2.583-.7385 2.307 1.2586 1.788-.7722-.05-.5909 2.272 2.1741-.074 5.8833-3.839 1.1616-1.196 3.2379.165 1.121-.974 1.111-2.521-1.686-.323.86-.832-.307-1.404.653-1.608 1.707 1.427.236-.916 2.719.34 2.094 2.536 1.034-.204.669 1.815 1.606.874 1.78-.706-.57 1.058 3.204 2.189 4.501-.477 3.848 1.132 1.311-1.304 1.867 2.903 3.729-.6.744 1.779-.741.208 2.337 1.218 4.948 3.653 1.296 1.752 1.855 1.392 2.121.883 1.831-1.589-3.302-2.926 2.978.27.904 3.218 1.184-.348 2.088.734-1.817-5.882.511.266-.397-2.657 1.148 3.995 1.21 2.523 2.468 2.139.598-.505 1.208 2.634 2.537.116.078 1.952-1.096-.533.248 2.728 1.158 1.27 5.113 4.687-.062 3.717.771 2.332.415-2.753 2.229-1.141 1.4 2.158.632 6.195 1.366-.161 1.826-3.466-.613-5.163-.285-.557-5.918-2.713-1.214-.095-1.406-1.79-.345-1.331-4.198-6.659-3.345-4.768-1.787-1.06-3.145-3.513-.558-1.849-.945-.753-3.542 2.591-1.292 2.334-2.304 1.212-.559-1.739-3.77-3.634-.424-1.037-1.782-1.392-3.009-.603-1.497-.761-2.097-.182-.199-71.523-1.215-.057-3.994-3.417-.988-.385-5.794.786-1.449-1.46-3.568-.207-1.792-.766-4.413-2.536-4.8655.249-2.0915-.476.7141-.872-2.1345-.109.3043-2.792-3.5996-.576-2.067.26-.1467-2.248-.8017-.492-2.7718 2.751 1.439-2.369-1.8613-3.196.0042-.007Z"/></svg>