<svg width="520" height="520" viewBox="0 0 520 520" fill="none" xmlns="http://www.w3.org/2000/svg">
  <path opacity="0.3" d="M516.439 63.3898C513.425 29.9914 486.578 3.54394 453.992 1.77034C410.482 -0.590112 109.525 -0.590112 65.9772 1.77034C33.4292 3.54394 6.58203 29.9914 3.55577 63.4159C-10.458 220.275 16.9919 341.323 85.1771 423.169C158.498 511.223 252.187 519.426 257.649 519.83L259.696 520L262.207 519.883C265.661 519.635 337.224 513.91 404.392 454.559L408.812 450.569C418.04 442.041 426.719 432.892 434.793 423.182C503.015 341.414 530.465 220.392 516.439 63.3898ZM36.6061 164.315C35.5755 131.81 36.5654 99.2704 39.5696 66.8979C40.2993 59.2966 43.7824 52.267 49.3139 47.2318L228.542 173.535L142.124 234.829L36.6061 164.315ZM109.714 257.82L57.4258 294.897C49.0058 267.703 43.197 239.71 40.0844 211.329L109.714 257.82ZM260.726 196.201L345.436 255.89L259.307 312.985L175.174 256.829L260.726 196.201ZM292.834 173.444L470.744 47.271C476.235 52.2883 479.698 59.2757 480.438 66.8327C483.461 99.2257 484.468 131.788 483.451 164.315L378.662 233.838L292.834 173.444ZM479.935 211.264C476.875 239.151 471.223 266.666 463.059 293.423L411.173 256.908L479.935 211.264ZM419.109 38.416L260.663 150.766L101.187 38.403C138.922 37.8161 199.447 37.5162 259.985 37.5162C320.523 37.5162 381.387 37.8161 419.109 38.416ZM70.9373 330.799L142.752 279.938L225.767 335.35L119.031 406.164C116.846 403.738 114.674 401.247 112.527 398.665C95.6352 378.205 81.6319 355.354 70.9373 330.799ZM260.286 482.376H260.186C257.386 482.181 201.971 477.734 146.544 432.416L259.244 357.651L372.484 433.289C319.267 476.286 266.339 481.868 260.286 482.376ZM407.481 398.639C405.062 401.551 402.621 404.355 400.16 407.051L292.784 335.324L377.972 278.843L449.698 329.377C438.914 354.458 424.695 377.786 407.481 398.639Z" fill="white"/>
</svg>
