<svg width="66" height="64" viewBox="0 0 66 64" fill="none" xmlns="http://www.w3.org/2000/svg">
<path d="M65.1999 7.80183C64.8194 3.69125 61.43 0.436177 57.3161 0.217888C51.8229 -0.0726292 13.8275 -0.0726292 8.32956 0.217888C4.2204 0.436177 0.830975 3.69125 0.448912 7.80504C-1.32031 27.1108 2.14521 42.009 10.7535 52.0824C20.0102 62.9198 31.8383 63.9294 32.528 63.9791L32.7864 64L33.1034 63.9856C33.5394 63.9551 42.5742 63.2504 51.0541 55.9458L51.6121 55.4546C52.7771 54.405 53.8728 53.279 54.8921 52.084C63.5052 42.0202 66.9707 27.1252 65.1999 7.80183ZM4.62149 20.2234C4.49137 16.2228 4.61635 12.2179 4.99562 8.23359C5.08775 7.29804 5.52749 6.43286 6.22584 5.81315L28.8532 21.3582L17.943 28.902L4.62149 20.2234ZM13.8512 31.7318L7.24996 36.295C6.18693 32.948 5.45358 29.5028 5.06062 26.0097L13.8512 31.7318ZM32.9164 24.1478L43.611 31.4942L32.7372 38.5212L22.1155 31.6098L32.9164 24.1478ZM36.97 21.347L59.4309 5.81796C60.1242 6.43548 60.5614 7.29547 60.6548 8.22556C61.0365 12.2124 61.1636 16.22 61.0353 20.2234L47.8057 28.78L36.97 21.347ZM60.5914 26.0017C60.205 29.434 59.4914 32.8204 58.4607 36.1136L51.9101 31.6194L60.5914 26.0017ZM52.9121 4.72812L32.9084 18.5558L12.7748 4.72652C17.5387 4.65429 25.18 4.61737 32.8228 4.61737C40.4657 4.61737 48.1498 4.65429 52.9121 4.72812ZM8.95576 40.7137L18.0222 34.4539L28.5028 41.2739L15.0276 49.9894C14.7517 49.6908 14.4775 49.3843 14.2064 49.0665C12.0738 46.5484 10.3059 43.7359 8.95576 40.7137ZM32.8609 59.3694H32.8482C32.4947 59.3453 25.4986 58.798 18.501 53.2204L32.7293 44.0185L47.0258 53.3279C40.3071 58.6198 33.625 59.3068 32.8609 59.3694ZM51.4441 49.0633C51.1386 49.4217 50.8305 49.7668 50.5198 50.0985L36.9637 41.2707L47.7185 34.3191L56.7739 40.5388C55.4125 43.6256 53.6173 46.4968 51.4441 49.0633Z" fill="#161A3D"/>
</svg>
