<svg width="21" height="20" viewBox="0 0 21 20" fill="none" xmlns="http://www.w3.org/2000/svg">
<path d="M5.85011 0H14.2501C17.4501 0 20.0501 2.6 20.0501 5.8V14.2C20.0501 15.7383 19.439 17.2135 18.3513 18.3012C17.2636 19.3889 15.7884 20 14.2501 20H5.85011C2.65011 20 0.0501099 17.4 0.0501099 14.2V5.8C0.0501099 4.26174 0.66118 2.78649 1.74889 1.69878C2.8366 0.61107 4.31185 0 5.85011 0ZM5.65011 2C4.69533 2 3.77966 2.37928 3.10453 3.05442C2.42939 3.72955 2.05011 4.64522 2.05011 5.6V14.4C2.05011 16.39 3.66011 18 5.65011 18H14.4501C15.4049 18 16.3206 17.6207 16.9957 16.9456C17.6708 16.2705 18.0501 15.3548 18.0501 14.4V5.6C18.0501 3.61 16.4401 2 14.4501 2H5.65011ZM15.3001 3.5C15.6316 3.5 15.9496 3.6317 16.184 3.86612C16.4184 4.10054 16.5501 4.41848 16.5501 4.75C16.5501 5.08152 16.4184 5.39946 16.184 5.63388C15.9496 5.8683 15.6316 6 15.3001 6C14.9686 6 14.6506 5.8683 14.4162 5.63388C14.1818 5.39946 14.0501 5.08152 14.0501 4.75C14.0501 4.41848 14.1818 4.10054 14.4162 3.86612C14.6506 3.6317 14.9686 3.5 15.3001 3.5ZM10.0501 5C11.3762 5 12.648 5.52678 13.5856 6.46447C14.5233 7.40215 15.0501 8.67392 15.0501 10C15.0501 11.3261 14.5233 12.5979 13.5856 13.5355C12.648 14.4732 11.3762 15 10.0501 15C8.72403 15 7.45226 14.4732 6.51458 13.5355C5.57689 12.5979 5.05011 11.3261 5.05011 10C5.05011 8.67392 5.57689 7.40215 6.51458 6.46447C7.45226 5.52678 8.72403 5 10.0501 5ZM10.0501 7C9.25446 7 8.4914 7.31607 7.92879 7.87868C7.36618 8.44129 7.05011 9.20435 7.05011 10C7.05011 10.7956 7.36618 11.5587 7.92879 12.1213C8.4914 12.6839 9.25446 13 10.0501 13C10.8458 13 11.6088 12.6839 12.1714 12.1213C12.734 11.5587 13.0501 10.7956 13.0501 10C13.0501 9.20435 12.734 8.44129 12.1714 7.87868C11.6088 7.31607 10.8458 7 10.0501 7Z" fill="white"/>
</svg>
