<svg width="21" height="20" viewBox="0 0 21 20" fill="none" xmlns="http://www.w3.org/2000/svg">
<path d="M0.0501099 1.4325C0.0501099 0.64125 0.70761 0 1.51886 0H18.5814C19.3926 0 20.0501 0.64125 20.0501 1.4325V18.5675C20.0501 19.3587 19.3926 20 18.5814 20H1.51886C0.70761 20 0.0501099 19.3587 0.0501099 18.5675V1.4325ZM6.22886 16.7425V7.71125H3.22761V16.7425H6.22886ZM4.72886 6.4775C5.77511 6.4775 6.42636 5.785 6.42636 4.9175C6.40761 4.03125 5.77636 3.3575 4.74886 3.3575C3.72136 3.3575 3.05011 4.0325 3.05011 4.9175C3.05011 5.785 3.70136 6.4775 4.70886 6.4775H4.72886ZM10.8639 16.7425V11.6988C10.8639 11.4288 10.8839 11.1587 10.9639 10.9662C11.1801 10.4275 11.6739 9.86875 12.5039 9.86875C13.5901 9.86875 14.0239 10.6962 14.0239 11.9113V16.7425H17.0251V11.5625C17.0251 8.7875 15.5451 7.4975 13.5701 7.4975C11.9776 7.4975 11.2639 8.3725 10.8639 8.98875V9.02H10.8439C10.8505 9.00957 10.8572 8.99915 10.8639 8.98875V7.71125H7.86386C7.90136 8.55875 7.86386 16.7425 7.86386 16.7425H10.8639Z" fill="white"/>
</svg>
