<svg xmlns="http://www.w3.org/2000/svg" width="25" height="25" fill="none" viewBox="0 0 25 25"><path fill="#1D225F" d="M23.0488 1.95238c-2.6038-2.603173-6.8252-2.603173-9.4284 0L9.90022 5.67095c.29458-.03209.59208-.04587.89118-.04587.9413 0 1.8569.14963 2.7236.4379l2.1081-2.10717c.7241-.72476 1.6869-1.12307 2.7108-1.12307 1.024 0 1.9868.39831 2.7107 1.12307.7241.7232 1.1223 1.68461 1.1223 2.70987 0 1.02388-.3982 1.98668-1.1223 2.70988l-4.1244 4.12434c-.724.7252-1.6868 1.1233-2.7107 1.1233-1.0255 0-1.9867-.3981-2.7115-1.1229-.3524-.3511-.6271-.76-.8163-1.2056-.4699.026-.90943.2213-1.24515.5569l-1.09866 1.1001c.30065.5568.68659 1.0817 1.15656 1.5534 2.60315 2.6034 6.82525 2.6034 9.42895 0l4.125-4.1259c2.6025-2.60299 2.6025-6.82346.0002-9.42667l.0002-.00015Z"/><path fill="#1D225F" d="M14.2536 19.3737c-.943 0-1.8676-.1526-2.7542-.4532L9.37689 21.043c-.72319.7248-1.68604 1.1231-2.70987 1.1231-1.02387 0-1.98511-.3982-2.70987-1.1231-.72476-.7234-1.12308-1.686-1.12308-2.7099 0-1.0239.39832-1.9868 1.12308-2.7114l4.12439-4.1244c.72475-.7232 1.68604-1.1215 2.70986-1.1215 1.0254 0 1.9867.3983 2.7106 1.1215.3526.3524.6278.7614.8179 1.207.4715-.0245.9117-.2213 1.2474-.5569l1.0971-1.0986c-.3007-.5586-.6875-1.08338-1.1581-1.55492-2.6032-2.60317-6.82528-2.60317-9.4285 0L1.95342 13.6198c-2.604559 2.6033-2.604559 6.8235 0 9.4285 2.60317 2.6033 6.82345 2.6033 9.42668 0l3.7139-3.714c-.277.0258-.5569.0397-.8392.0397l-.0012-.0003Z"/></svg>