<svg width="18" height="20" viewBox="0 0 18 20" fill="none" xmlns="http://www.w3.org/2000/svg">
<path d="M13.8723 3.13333C13.1128 2.26625 12.6942 1.1527 12.6946 0H9.26122V13.7778C9.23474 14.5234 8.91997 15.2296 8.38318 15.7477C7.8464 16.2658 7.1295 16.5555 6.38344 16.5556C4.80567 16.5556 3.49455 15.2667 3.49455 13.6667C3.49455 11.7556 5.339 10.3222 7.239 10.9111V7.4C3.40567 6.88889 0.0501099 9.86667 0.0501099 13.6667C0.0501099 17.3667 3.11678 20 6.37233 20C9.86122 20 12.6946 17.1667 12.6946 13.6667V6.67778C14.0868 7.67761 15.7583 8.21405 17.4723 8.21111V4.77778C17.4723 4.77778 15.3834 4.87778 13.8723 3.13333Z" fill="white"/>
</svg>
