<svg width="29" height="20" viewBox="0 0 29 20" fill="none" xmlns="http://www.w3.org/2000/svg">
<path d="M28.4724 9.91382C28.4724 9.84611 28.4724 9.76916 28.4692 9.6799C28.4661 9.43059 28.4599 9.15051 28.4536 8.85195C28.4286 7.99323 28.3849 7.13758 28.3161 6.33118C28.2224 5.22007 28.0849 4.29363 27.8974 3.59803C27.6995 2.87211 27.3116 2.21006 26.7726 1.67804C26.2335 1.14603 25.5621 0.762684 24.8255 0.566328C23.9411 0.33241 22.2099 0.18775 19.7724 0.0984917C18.613 0.0554016 17.3724 0.0277006 16.1317 0.0123113C15.6974 0.00615555 15.2942 0.00307787 14.9317 0H14.013C13.6505 0.00307787 13.2474 0.00615555 12.813 0.0123113C11.5724 0.0277006 10.3317 0.0554016 9.17235 0.0984917C6.73485 0.190828 5.00048 0.335488 4.11923 0.566328C3.38235 0.762202 2.71069 1.14538 2.17155 1.67747C1.63241 2.20957 1.24473 2.87187 1.04735 3.59803C0.856726 4.29363 0.722351 5.22007 0.628601 6.33118C0.559851 7.13758 0.516101 7.99323 0.491101 8.85195C0.481726 9.15051 0.478601 9.43059 0.475476 9.6799C0.475476 9.76916 0.472351 9.84611 0.472351 9.91382V10.0862C0.472351 10.1539 0.472351 10.2308 0.475476 10.3201C0.478601 10.5694 0.484851 10.8495 0.491101 11.148C0.516101 12.0068 0.559851 12.8624 0.628601 13.6688C0.722351 14.7799 0.859851 15.7064 1.04735 16.402C1.44735 17.8763 2.62235 19.0397 4.11923 19.4337C5.00048 19.6676 6.73485 19.8122 9.17235 19.9015C10.3317 19.9446 11.5724 19.9723 12.813 19.9877C13.2474 19.9938 13.6505 19.9969 14.013 20H14.9317C15.2942 19.9969 15.6974 19.9938 16.1317 19.9877C17.3724 19.9723 18.613 19.9446 19.7724 19.9015C22.2099 19.8092 23.9442 19.6645 24.8255 19.4337C26.3224 19.0397 27.4974 17.8793 27.8974 16.402C28.088 15.7064 28.2224 14.7799 28.3161 13.6688C28.3849 12.8624 28.4286 12.0068 28.4536 11.148C28.463 10.8495 28.4661 10.5694 28.4692 10.3201C28.4692 10.2308 28.4724 10.1539 28.4724 10.0862V9.91382ZM26.2224 10.0739C26.2224 10.1385 26.2224 10.2093 26.2192 10.2924C26.2161 10.5325 26.2099 10.7972 26.2036 11.0834C26.1817 11.9021 26.138 12.7208 26.0724 13.4811C25.988 14.4721 25.8692 15.2847 25.7224 15.8295C25.5286 16.5405 24.9599 17.1037 24.2411 17.2915C23.5849 17.4638 21.9317 17.6023 19.6849 17.6854C18.5473 17.7285 17.3223 17.7562 16.1005 17.7716C15.6723 17.7778 15.2755 17.7809 14.9192 17.7809H14.0255L12.8442 17.7716C11.6224 17.7562 10.4005 17.7285 9.25985 17.6854C7.01298 17.5993 5.35673 17.4638 4.7036 17.2915C3.98485 17.1006 3.4161 16.5405 3.22235 15.8295C3.07548 15.2847 2.95673 14.4721 2.87235 13.4811C2.80673 12.7208 2.7661 11.9021 2.7411 11.0834C2.73173 10.7972 2.7286 10.5294 2.72548 10.2924C2.72548 10.2093 2.72235 10.1354 2.72235 10.0739V9.92613C2.72235 9.8615 2.72235 9.7907 2.72548 9.7076C2.7286 9.46753 2.73485 9.20283 2.7411 8.91659C2.76298 8.09787 2.80673 7.27916 2.87235 6.51893C2.95673 5.52785 3.07548 4.7153 3.22235 4.17051C3.4161 3.45953 3.98485 2.89628 4.7036 2.70853C5.35985 2.53616 7.01298 2.39766 9.25985 2.31456C10.3974 2.27147 11.6224 2.24377 12.8442 2.22838C13.2724 2.22222 13.6692 2.21914 14.0255 2.21914H14.9192L16.1005 2.22838C17.3223 2.24377 18.5442 2.27147 19.6849 2.31456C21.9317 2.40074 23.588 2.53616 24.2411 2.70853C24.9599 2.89935 25.5286 3.45953 25.7224 4.17051C25.8692 4.7153 25.988 5.52785 26.0724 6.51893C26.138 7.27916 26.1786 8.09787 26.2036 8.91659C26.213 9.20283 26.2161 9.47061 26.2192 9.7076C26.2192 9.7907 26.2224 9.86457 26.2224 9.92613V10.0739ZM11.6911 14.1243L18.9411 9.96922L11.6911 5.87565V14.1243Z" fill="white"/>
</svg>
