<svg width="40" height="40" viewBox="0 0 40 40" fill="none" xmlns="http://www.w3.org/2000/svg">
<path fill-rule="evenodd" clip-rule="evenodd" d="M15.1641 18.1665H11.4974V21.8332H15.1641V18.1665ZM11.6641 21.6665V18.3332H14.9974L11.6667 18.3333V21.6665H11.6641Z" fill="#161A3D"/>
<path fill-rule="evenodd" clip-rule="evenodd" d="M21.8307 18.1665H18.1641V21.8332H21.8307V18.1665ZM21.6641 18.3332H18.3307V21.6665H18.3333V18.3333L21.6641 18.3332Z" fill="#161A3D"/>
<path fill-rule="evenodd" clip-rule="evenodd" d="M28.4974 18.1665H24.8307V21.8332H28.4974V18.1665ZM24.9974 21.6665V18.3332H28.3307L25 18.3333V21.6665H24.9974Z" fill="#161A3D"/>
<path fill-rule="evenodd" clip-rule="evenodd" d="M19.9974 4.83316C10.8657 4.83316 3.16408 11.4674 3.16408 19.9998C3.16408 22.7466 3.97464 25.3171 5.37887 27.5278L3.25627 33.2043C3.0717 33.6979 3.16837 34.253 3.50902 34.6548C3.84971 35.0566 4.38099 35.2417 4.89701 35.1382L12.5454 33.6042C14.7968 34.6064 17.3282 35.1665 19.9974 35.1665C29.1291 35.1665 36.8307 28.5322 36.8307 19.9998C36.8307 11.4674 29.1291 4.83316 19.9974 4.83316ZM6.06152 19.9998C6.06152 13.3829 12.1367 7.73792 19.9974 7.73792C27.8581 7.73792 33.9333 13.3829 33.9333 19.9998C33.9333 26.6167 27.8581 32.2617 19.9974 32.2617C17.5823 32.2617 15.3188 31.7213 13.3481 30.777C13.0654 30.6415 12.7464 30.6015 12.4391 30.6632L6.88418 31.7773L8.35393 27.8468C8.52315 27.3942 8.45675 26.8869 8.17668 26.4934C6.82948 24.6006 6.06152 22.3755 6.06152 19.9998ZM12.8057 30.8043C12.6946 30.7971 12.5824 30.8044 12.4719 30.8266L6.62597 31.9991L12.4745 30.8268C12.5841 30.8048 12.6955 30.7974 12.8057 30.8043ZM18.9647 32.3956C19.3056 32.4173 19.6499 32.4284 19.9974 32.4284C27.9322 32.4284 34.1 26.7257 34.1 19.9998C34.1 13.5666 28.4572 8.06947 21.0228 7.60326C28.4585 8.06835 34.1026 13.566 34.1026 20C34.1026 26.7259 27.9348 32.4285 20 32.4285C19.6517 32.4285 19.3064 32.4174 18.9647 32.3956ZM3.41238 33.2626L5.56414 27.5082C4.14842 25.307 3.33075 22.742 3.33075 19.9998C3.33075 11.5774 10.9388 4.99983 19.9974 4.99983C20.3915 4.99983 20.7829 5.01228 21.171 5.03679C20.7837 5.01239 20.3932 4.99999 20 4.99999C10.9414 4.99999 3.33335 11.5775 3.33335 20C3.33335 22.7421 4.15102 25.3071 5.56674 27.5084L3.41498 33.2628C3.25153 33.6999 3.33718 34.1915 3.63874 34.5471C3.86671 34.816 4.19101 34.9752 4.53291 34.9973C4.19005 34.9758 3.86469 34.8165 3.63614 34.547C3.33458 34.1914 3.24893 33.6997 3.41238 33.2626Z" fill="#161A3D"/>
</svg>
