<svg xmlns="http://www.w3.org/2000/svg" width="40" height="40" fill="none" viewBox="0 0 40 40"><path stroke="#262D70" stroke-linecap="round" stroke-miterlimit="10" stroke-width="2" d="M24 39c7.5948-1.5793 13.5453-7.5098 15-15M1 24c1.52478 7.6752 7.92658 13.6981 16 15M17 1C8.92547 2.3019 2.52456 8.32483 1 16M39 16C37.5433 8.50983 31.5937 2.57711 24 1"/><path fill="#262D70" d="M15.0783 19.8664c-.5759-.5956-1.5255-.6115-2.121-.0356-.5956.5759-.6115 1.5255-.0356 2.121l2.1566-2.0854Zm2.614 4.8609L16.614 25.77c.2841.2937.6756.4589 1.0842.4573.4086-.0016.7988-.1699 1.0806-.4658l-1.0865-1.0342Zm9.3942-7.6931c.5711-.6.5478-1.5495-.0523-2.1207-.6-.5711-1.5495-.5478-2.1207.0523l2.173 2.0684Zm-14.1648 4.9176L16.614 25.77l2.1566-2.0855-3.6923-3.8181-2.1566 2.0854Zm5.8571 3.8097 8.3077-8.7273-2.173-2.0684-8.3076 8.7273 2.1729 2.0684Z"/></svg>