<svg xmlns="http://www.w3.org/2000/svg" width="45" height="45" fill="none" viewBox="0 0 45 45"><path stroke="#262D70" stroke-linecap="round" stroke-linejoin="round" stroke-width="2" d="M12.375 7.3125h4.5c0 1.24264 1.0074 2.25 2.25 2.25h6.75c1.2426 0 2.25-1.00736 2.25-2.25h4.5c1.2426 0 2.25 1.00736 2.25 2.25v27c0 1.2426-1.0074 2.25-2.25 2.25h-20.25c-1.2426 0-2.25-1.0074-2.25-2.25v-27c0-1.24264 1.0074-2.25 2.25-2.25Z"/><path stroke="#262D70" stroke-linecap="round" stroke-linejoin="round" stroke-width="2" d="M16.875 7.3125c0-1.24264 1.0074-2.25 2.25-2.25h6.75c1.2426 0 2.25 1.00736 2.25 2.25s-1.0074 2.25-2.25 2.25h-6.75c-1.2426 0-2.25-1.00736-2.25-2.25ZM20.8125 4.5c0-.31066.2518-.5625.5625-.5625h2.25c.3107 0 .5625.25184.5625.5625s-.2518.5625-.5625.5625h-2.25c-.3107 0-.5625-.25184-.5625-.5625ZM20.25 29.4231c0 .6213.5037 1.125 1.125 1.125h2.25c.6214 0 1.125-.5037 1.125-1.125v-3.5265c0-.0119.0097-.0216.0216-.0216h3.5265c.6213 0 1.125-.5036 1.125-1.125V22.5c0-.6213-.5037-1.125-1.125-1.125h-3.5263c-.012 0-.0218-.0097-.0218-.0217v-3.5264c0-.6213-.5036-1.125-1.125-1.125h-2.2499c-.6214 0-1.1251.5037-1.1251 1.125v3.5264c0 .012-.0097.0217-.0217.0217h-3.5264c-.6213 0-1.125.5037-1.125 1.125v2.25c0 .6214.5037 1.125 1.125 1.125h3.5266c.0119 0 .0215.0097.0215.0216v3.5265Z"/></svg>