<svg width="40" height="40" viewBox="0 0 40 40" fill="none" xmlns="http://www.w3.org/2000/svg">
<path d="M28 16H12V13.5H28V16Z" fill="#161A3D"/>
<path d="M12 22H28V19.5H12V22Z" fill="#161A3D"/>
<path fill-rule="evenodd" clip-rule="evenodd" d="M14 4C14 2.89543 14.8954 2 16 2H24C25.1046 2 26 2.89543 26 4V5H33C34.1046 5 35 5.89543 35 7V35C35 36.1046 34.1046 37 33 37H7C5.89543 37 5 36.1046 5 35V7C5 5.89543 5.89543 5 7 5H14V4ZM16.5 7.5V4.5H23.5V7.5H16.5ZM26 7.5V8C26 9.10457 25.1046 10 24 10H16C14.8954 10 14 9.10457 14 8V7.5H7.5V34.5H32.5V7.5H26Z" fill="#161A3D"/>
</svg>
