<svg width="40" height="40" viewBox="0 0 40 40" fill="none" xmlns="http://www.w3.org/2000/svg">
<path d="M37.3785 33.0117L35.0152 24.6875V6.5625C35.0152 5.87109 34.4566 5.3125 33.7652 5.3125H6.26518C5.57377 5.3125 5.01518 5.87109 5.01518 6.5625V24.6875L2.6519 33.0117C2.35893 33.8281 2.96049 34.6875 3.82768 34.6875H36.2027C37.0699 34.6875 37.6714 33.8281 37.3785 33.0117ZM7.82768 8.125H32.2027V23.5547H7.82768V8.125V8.125ZM16.7456 31.875L17.0621 30.4297H22.9331L23.2496 31.875H16.7456V31.875ZM25.4956 31.875L24.7496 28.4883C24.7183 28.3437 24.5894 28.2422 24.4449 28.2422H15.5542C15.4058 28.2422 15.2808 28.3437 15.2496 28.4883L14.5035 31.875H5.89799L7.55034 26.0547H32.48L34.1324 31.875H25.4956Z" fill="#161A3D"/>
</svg>
