<svg xmlns="http://www.w3.org/2000/svg" width="100" height="100" fill="none" viewBox="0 0 100 100"><rect width="42" height="32" x="30" y="3" stroke="#262D70" stroke-width="2" rx="1"/><path stroke="#262D70" stroke-linecap="round" stroke-width="2" d="M31.6538 28.619h38.7949"/><mask id="a" fill="#fff"><path d="M58 13.5838C58 11.6078 56.4119 10 54.4591 10c-1.2219 0-2.3197.6188-2.9618 1.6095C50.8469 10.6182 49.7355 10 48.5415 10 46.5888 10 45 11.608 45 13.5838c0 .3452.0473.6843.1406 1.0082.3015 1.6604 2.3159 3.5763 4.264 5.429.4268.4056.9302.8571 1.3805 1.2795.4023.3775 1.0367.3935 1.4372.0141.7345-.6955 1.8398-1.7458 2.4007-2.2965 1.6467-1.617 3.0715-3.0167 3.2437-4.4544.0886-.3156.1333-.6439.1333-.9799Z"/></mask><path fill="#262D70" d="m51.4973 11.6095-1.6722 1.0972c.3708.5651 1.0019.9047 1.6778.9028.6759-.0019 1.3051-.345 1.6727-.9122l-1.6783-1.0878Zm-6.3567 2.9825 1.9678-.3573-.018-.0993-.0279-.0969-1.9219.5535Zm4.264 5.429-1.3782 1.4492.0004.0004 1.3778-1.4496Zm5.2184-1.0029 1.4012 1.4271-1.4012-1.4271Zm3.2437-4.4544-1.9255-.5406-.0419.149-.0184.1537 1.9858.2379Zm-7.0816 6.7368-1.3685 1.4585 1.3685-1.4585ZM60 13.5838C60 10.5262 57.5393 8 54.4591 8v4C55.2845 12 56 12.6894 56 13.5838h4ZM54.4591 8c-1.9123 0-3.6362.97278-4.6401 2.5218l3.3566 2.1755c.2803-.4324.752-.6973 1.2835-.6973V8Zm-1.2896 2.5124C52.1595 8.97291 50.4276 8 48.5415 8v4c.5019 0 .9928.2634 1.2836.7067l3.3444-2.1943ZM48.5415 8C45.4618 8 43 10.526 43 13.5838h4C47 12.6901 47.7158 12 48.5415 12V8ZM43 13.5838c0 .5281.0725 1.0537.2187 1.5616l3.8438-1.1069c-.0403-.1399-.0625-.2924-.0625-.4547h-4Zm.1728 1.3655c.2512 1.3838 1.1381 2.6207 1.9621 3.5846.8649 1.0119 1.9365 2.0281 2.8915 2.9363l2.7565-2.8985c-.9931-.9445-1.9029-1.8125-2.6075-2.6369-.7456-.8722-1.0167-1.4235-1.067-1.7001l-3.9356.7146Zm4.854 6.5213c.4002.3804 1.0193.9408 1.3898 1.2884l2.737-2.9169c-.5301-.4974-.9178-.84-1.3711-1.2708l-2.7557 2.8993Zm5.5707 1.2962c.7307-.6919 1.8503-1.7557 2.4267-2.3216l-2.8025-2.8541c-.5453.5354-1.6364 1.5723-2.3746 2.2713l2.7504 2.9044Zm2.4267-2.3216c.7986-.7842 1.6626-1.6285 2.3373-2.4745.6649-.8338 1.3389-1.8987 1.491-3.1691l-3.9716-.4758c-.02.1673-.1445.5211-.6468 1.1509-.4924.6175-1.1642 1.2815-2.0124 2.1144l2.8025 2.8541Zm3.7681-5.3409c.1392-.4959.2077-1.0063.2077-1.5205h-4c0 .1578-.0208.3039-.0588.4393l3.8511 1.0812ZM49.4166 22.759c1.1291 1.0595 2.9673 1.157 4.1809.0078l-2.7504-2.9044c.4125-.3905.982-.3248 1.3065-.0203l-2.737 2.9169Z" mask="url(#a)"/><path stroke="#262D70" stroke-linecap="round" stroke-width="2" d="M51.0513 35.6666v4.4103"/><path stroke="#262D70" stroke-width="2" d="M38.7266 41.0769h22.4443c4.5486 0 8.2844 3.4802 8.69 7.9231H30.0365c.4056-4.4429 4.1414-7.9231 8.6901-7.9231Z"/><rect width="86" height="8" x="7" y="49" stroke="#262D70" stroke-width="2" rx="1"/><rect width="41" height="6" x="19" y="57" stroke="#262D70" stroke-width="2" rx="1" transform="rotate(90 19 57)"/><rect width="41" height="6" x="87" y="57" stroke="#262D70" stroke-width="2" rx="1" transform="rotate(90 87 57)"/><path stroke="#262D70" stroke-linecap="round" stroke-width="2" d="M19.5 75H81"/><rect width="10" height="13" x="13" y="36" stroke="#262D70" stroke-width="2" rx="1"/><path stroke="#262D70" stroke-linecap="square" stroke-width="2" d="M15 29v7M18 26v10M21 29v7"/><rect width="10" height="13" x="77" y="36" stroke="#262D70" stroke-width="2" rx="1"/><rect width="4" height="5" x="87" y="40" stroke="#262D70" stroke-width="2" rx="1"/></svg>