<svg xmlns="http://www.w3.org/2000/svg" width="45" height="45" fill="none" viewBox="0 0 45 45"><path stroke="#fff" stroke-linecap="round" stroke-linejoin="round" stroke-width="2" d="M25.2005 36.0001H7.42549c-.99411 0-1.8-.8059-1.8-1.8v-.679c0-2.5706 1.59014-4.8733 3.99414-5.7838 4.31277-1.6334 9.07397-1.6334 13.38667 0 2.404.9105 3.9942 3.2132 3.9942 5.7838v.679c0 .9941-.8059 1.8-1.8 1.8ZM13.5801 21.9814c1.7134.8895 3.7525.8895 5.466 0 1.5759-.818 2.7026-2.299 3.0704-4.0361l.1151-.5437c.3776-1.783-.0268-3.6423-1.1108-5.1075l-.1858-.2511c-1.0841-1.4654-2.799-2.32989-4.6219-2.32989-1.8229 0-3.5378.86449-4.622 2.32989l-.1857.2511c-1.084 1.4652-1.4884 3.3245-1.1109 5.1075l.1152.5437c.3678 1.7371 1.4944 3.2181 3.0704 4.0361Z"/><path stroke="#fff" stroke-linecap="round" stroke-linejoin="round" stroke-width="2" d="M38.1744 33.7499H27v-.229c0-1.4474-.5041-2.8098-1.3738-3.8866.481-.6299 1.1381-1.1279 1.9164-1.4152 2.9168-1.0763 6.1219-1.0763 9.0387 0 1.6784.6194 2.7932 2.219 2.7932 4.008v.3228c0 .6627-.5373 1.2-1.2001 1.2ZM36.0475 21.6454c-.2609 1.2003-1.0487 2.219-2.1448 2.7734-1.1574.5854-2.5241.5854-3.6815 0-1.0961-.5544-1.8839-1.5731-2.1448-2.7734l-.0522-.2402c-.2652-1.2207.017-2.4963.7724-3.4912l.0832-.1095c.7555-.995 1.9329-1.5793 3.1821-1.5793 1.2493 0 2.4267.5843 3.1822 1.5793l.0832.1095c.7554.9949 1.0376 2.2705.7724 3.4912l-.0522.2402Z"/></svg>