<svg xmlns="http://www.w3.org/2000/svg" width="40" height="40" fill="none" viewBox="0 0 40 40"><path stroke="#262D70" stroke-width="2" d="M1 2c0-.55228.44772-1 1-1h10.6153c.2817 0 .5504.11885.7399.32733l3.8097 4.19069c.5686.62542 1.3746.98198 2.2198.98198H38c.5523 0 1 .44772 1 1V38c0 .5523-.4477 1-1 1H2c-.55228 0-1-.4477-1-1V2Z"/><path fill="#262D70" d="M19.1188 16.6426c.3771-.703 1.3853-.703 1.7624 0l1.3493 2.5151c.1518.283.4304.4759.7487.5185l2.8706.3836c.846.113 1.1706 1.1658.5351 1.7357l-1.9669 1.7638c-.2598.233-.3794.5846-.3154.9277l.4786 2.5679c.1503.8062-.6803 1.4406-1.4185 1.0835l-2.7272-1.3193c-.2751-.1331-.5959-.1331-.871 0l-2.7272 1.3193c-.7382.3571-1.5688-.2773-1.4185-1.0834l.4786-2.568c.064-.3431-.0556-.6947-.3154-.9277l-1.9669-1.7638c-.6355-.5699-.3109-1.6227.5351-1.7357l2.8706-.3836c.3183-.0426.5969-.2355.7487-.5185l1.3493-2.5151Z"/></svg>