<svg xmlns="http://www.w3.org/2000/svg" width="100" height="100" fill="none" viewBox="0 0 100 100"><circle cx="45.3648" cy="48.3648" r="36.3648" stroke="#262D70" stroke-width="2"/><path stroke="#262D70" stroke-linecap="round" stroke-width="2" d="m73.5 71.5 18.5377 17.9961c.8357.8113 2.1852.7397 2.9303-.1555l.3338-.4011c.6741-.8098.6043-2.0037-.1596-2.7295L76.5 68.5M21 41h49"/><path stroke="#262D70" stroke-width="2" d="M31.1702 49.2754h10.6425c.5522 0 1 .4477 1 1v10.6424c0 .5523-.4478 1-1 1H31.1702c-.5523 0-1-.4477-1-1V50.2754c0-.5523.4477-1 1-1Z"/><path stroke="#262D70" stroke-linecap="round" stroke-width="2" d="M47.9962 50h12.5507M47.9962 55.6328h12.5507M47.9962 61.413h12.5507M30 69h31"/><circle cx="26.5" cy="36.5" r="1.5" fill="#262D70"/><circle cx="31.5" cy="36.5" r="1.5" fill="#262D70"/><circle cx="36.5" cy="36.5" r="1.5" fill="#262D70"/><path stroke="#262D70" stroke-linecap="round" stroke-width="2" d="M20 73V34c0-1.1046.8954-2 2-2h46c1.1046 0 2 .8954 2 2v40"/></svg>