<svg width="37" height="37" viewBox="0 0 37 37" fill="none" xmlns="http://www.w3.org/2000/svg"><path fill-rule="evenodd" clip-rule="evenodd" d="M25.4349 11.7552C25.4349 15.4803 22.4151 18.5 18.6901 18.5C14.9651 18.5 11.9453 15.4803 11.9453 11.7552C11.9453 8.03016 14.9651 5.01042 18.6901 5.01042C22.4151 5.01042 25.4349 8.03016 25.4349 11.7552ZM28.1328 11.7552C28.1328 16.9703 23.9052 21.1979 18.6901 21.1979C13.475 21.1979 9.2474 16.9703 9.2474 11.7552C9.2474 6.54014 13.475 2.3125 18.6901 2.3125C23.9052 2.3125 28.1328 6.54014 28.1328 11.7552ZM5.97135 34.6875C5.97135 29.7683 11.2443 25.2448 18.4974 25.2448C25.7505 25.2448 31.0234 29.7683 31.0234 34.6875V36.0365H33.7214V34.6875C33.7214 27.6866 26.5702 22.5469 18.4974 22.5469C10.4246 22.5469 3.27344 27.6866 3.27344 34.6875V36.0365H5.97135V34.6875Z" fill="#161A3D"/>
</svg>