<svg width="31" height="35" viewBox="0 0 31 35" fill="none" xmlns="http://www.w3.org/2000/svg"><path fill-rule="evenodd" clip-rule="evenodd" d="M22.4349 9.75521C22.4349 13.4803 19.4151 16.5 15.6901 16.5C11.9651 16.5 8.94531 13.4803 8.94531 9.75521C8.94531 6.03016 11.9651 3.01042 15.6901 3.01042C19.4151 3.01042 22.4349 6.03016 22.4349 9.75521ZM25.1328 9.75521C25.1328 14.9703 20.9052 19.1979 15.6901 19.1979C10.475 19.1979 6.2474 14.9703 6.2474 9.75521C6.2474 4.54014 10.475 0.3125 15.6901 0.3125C20.9052 0.3125 25.1328 4.54014 25.1328 9.75521ZM2.97135 32.6875C2.97135 27.7683 8.24431 23.2448 15.4974 23.2448C22.7505 23.2448 28.0234 27.7683 28.0234 32.6875V34.0365H30.7214V32.6875C30.7214 25.6866 23.5702 20.5469 15.4974 20.5469C7.42457 20.5469 0.273438 25.6866 0.273438 32.6875V34.0365H2.97135V32.6875Z" fill="#161A3D"/>
</svg>