<svg xmlns="http://www.w3.org/2000/svg" width="40" height="40" fill="none" viewBox="0 0 40 40"><path stroke="#262D70" stroke-width="2" d="M33.8724 36.6801c-3.8376 3.8142-16.143-1.1998-22.8533-7.8688-5.05191-5.0202-8.84739-12.6617-9.01345-18.1581C1.91 7.48723 4.23115 4.97742 6.47809 2.74504c.99966-.99339 2.62043-.99339 3.62011 0 .0599.05957.1171.12261.1715.18773l6.5165 7.91453c.8331 1.0114.7585 2.4855-.1715 3.4096l-3.5873 3.5649c-.2056.205-.2467.5216-.0997.7717 1.1105 1.8828 2.3117 3.4636 3.6006 4.7438 1.2883 1.2802 2.8791 2.4738 4.7738 3.5773.2517.1462.5702.1053.7759-.0991l3.5873-3.5648c.93-.9241 2.4134-.9975 3.4312-.1704l7.9644 6.4757c1.0945.8895 1.2555 2.4925.3604 3.5794l-3.5489 3.5447Z" clip-rule="evenodd"/></svg>