<svg width="43" height="43" viewBox="0 0 43 43" fill="none" xmlns="http://www.w3.org/2000/svg"><path fill-rule="evenodd" clip-rule="evenodd" d="M6.71875 6.71879V10.75C6.71875 24.8506 18.1495 36.2813 32.25 36.2813H36.2812V27.8435L27.5557 24.935L25.3598 29.3268C25.0373 29.9718 24.2631 30.2473 23.6056 29.9508C18.9268 27.8413 15.1588 24.0733 13.0492 19.3944C12.7528 18.737 13.0282 17.9628 13.6733 17.6402L18.065 15.4443L15.1565 6.71875L6.71875 6.71879ZM5.37499 4.0313L16.125 4.03125C16.7034 4.03125 17.2169 4.40136 17.3998 4.95007L20.9831 15.7001C21.1946 16.3345 20.9074 17.0278 20.3093 17.3269L16.0706 19.4463C17.7768 22.6135 20.3865 25.2233 23.5538 26.9295L25.6731 22.6907C25.9722 22.0926 26.6655 21.8054 27.2999 22.0169L38.0499 25.6002C38.5986 25.7831 38.9688 26.2966 38.9688 26.875V37.625C38.9688 38.3672 38.3671 38.9688 37.625 38.9688H32.25C16.6652 38.9688 4.03125 26.3348 4.03125 10.75V5.37505C4.03125 4.63292 4.63286 4.0313 5.37499 4.0313Z" fill="#161A3D"/>
</svg>