<svg width="40" height="40" viewBox="0 0 40 40" fill="none" xmlns="http://www.w3.org/2000/svg"><path d="M20 12.25C10.7492 12.25 3.25 19.7492 3.25 29H0.75C0.75 18.3685 9.36852 9.75 20 9.75C30.6315 9.75 39.25 18.3685 39.25 29H36.75C36.75 19.7492 29.2508 12.25 20 12.25Z" fill="#161A3D"/><path d="M20 16.75C13.2345 16.75 7.75 22.2345 7.75 29H5.25C5.25 20.8538 11.8538 14.25 20 14.25C28.1462 14.25 34.75 20.8538 34.75 29H32.25C32.25 22.2345 26.7655 16.75 20 16.75Z" fill="#161A3D"/><path d="M12.25 29C12.25 24.7198 15.7198 21.25 20 21.25C24.2802 21.25 27.75 24.7198 27.75 29H30.25C30.25 23.3391 25.6609 18.75 20 18.75C14.3391 18.75 9.75 23.3391 9.75 29H12.25Z" fill="#161A3D"/>
</svg>